<svg id="Layer_1" height="512" viewBox="0 0 512 512" width="512" xmlns="http://www.w3.org/2000/svg" data-name="Layer 1"><path d="m303.9 401.851v78.149h-248.18c-21.94 0-39.72-17.289-39.72-38.619v-.05c0-21.33 17.78-38.62 39.72-38.62l248.18-.93z" fill="#e2e4ed"/><path d="m55.72 32c-21.94 0-39.72 17.291-39.72 38.621v370.71c0-21.33 17.78-38.62 39.72-38.62l266.62-1v-369.711z" fill="#e75163"/><path d="m455.75 218.6v110.16h-22.26a2.236 2.236 0 0 1 -2.24-2.24v-105.679a2.236 2.236 0 0 1 2.24-2.24h22.26z" fill="#c6e02d"/><path d="m478.87 218.621a18.1 18.1 0 0 1 17.13 18.04v74.039a18.083 18.083 0 0 1 -18.11 18.06h-22.14v-110.16h22.14c.33 0 .66.011.98.021z" fill="#6d7486"/><path d="m109.05 32.491v90.54a2.608 2.608 0 0 1 -4 2.2l-19.45-20.02a2.588 2.588 0 0 0 -2.78 0l-19.46 20.02a2.6 2.6 0 0 1 -3.99-2.2v-91.031h49.68z" fill="#ffdb00"/><path d="m322.34 104.941c-56.03 8.01-99.08 55.53-99.15 113.66h-21.81a18.163 18.163 0 0 0 -2.23.14c0-71.42 53.81-129.6 123.19-137.71a143.372 143.372 0 0 1 16.67-.97 140.1 140.1 0 0 1 98.9 40.44 137.544 137.544 0 0 1 40.96 98.12c-.32-.01-.65-.02-.98-.02h-22.72a114.05 114.05 0 0 0 -33.97-81.33 117.167 117.167 0 0 0 -98.86-32.33z" fill="#b0b5ca"/><path d="m248.02 220.841v105.68a2.236 2.236 0 0 1 -2.24 2.24h-22.26v-110.161h22.26a2.236 2.236 0 0 1 2.24 2.241z" fill="#c6e02d"/><path d="m223.52 218.6v110.16h-22.14a18.083 18.083 0 0 1 -18.11-18.06v-74.04a18.129 18.129 0 0 1 18.11-18.06z" fill="#6d7486"/><path d="m46 70.621c0-21.33 17.78-38.621 39.72-38.621h-30c-21.94 0-39.72 17.291-39.72 38.621v370.71c0-18.07 12.761-33.235 30-37.451z" fill="#ff8585"/><g fill="#284268"><path d="m484.775 213.605a143.005 143.005 0 0 0 -42.647-97.369 145.65 145.65 0 0 0 -103.117-42.174q-5.37 0-10.674.38v-42.442a6 6 0 0 0 -6-6h-266.616c-25.211 0-45.721 20.015-45.721 44.618v370.737.027c0 24.603 20.51 44.618 45.721 44.618h248.179a6 6 0 0 0 6-6v-72.242l12.455-.046a6 6 0 0 0 5.978-6v-45.561c9.158-2.569 20-.685 32.3 5.634l29.639 15.226a54.721 54.721 0 0 0 42.528 3.079l.123-.042a54.259 54.259 0 0 0 36.363-45.285h8.6a24.114 24.114 0 0 0 24.114-24.063v-74.037a24.109 24.109 0 0 0 -17.225-23.058zm-51.085-88.838a131.083 131.083 0 0 1 39.041 87.833h-11.716a119.594 119.594 0 0 0 -35.6-79.6 123.052 123.052 0 0 0 -172.473.007 119.615 119.615 0 0 0 -35.6 79.59h-12.042a131.108 131.108 0 0 1 39.039-87.825 135.141 135.141 0 0 1 189.356-.008zm3.559 198v-98.167h12.5v98.163zm-235.868-98.167h16.136v98.163h-16.136a12.1 12.1 0 0 1 -12.11-12.063v-74.037a12.1 12.1 0 0 1 12.11-12.063zm28.136 0h12.5v98.163h-12.5zm-164.152-186.6h37.683v76.559l-13.648-14.049-.609-.383a8.658 8.658 0 0 0 -9.164 0l-.61.383-13.65 14.05zm232.535 436h-242.179c-18.594 0-33.721-14.632-33.721-32.673 0-17.985 15.127-32.617 33.743-32.617l242.157-.91zm-242.179-77.29a46.1 46.1 0 0 0 -33.721 14.53v-340.622c0-17.218 13.867-31.355 31.365-32.529v84.941a8.609 8.609 0 0 0 13.189 7.282l.61-.383 17.043-17.542 17.042 17.541.61.384a8.608 8.608 0 0 0 13.189-7.282v-85.03h201.289v37.787a145.129 145.129 0 0 0 -80.437 40.457 143.039 143.039 0 0 0 -42.659 97.773 24.1 24.1 0 0 0 -15.965 22.646v74.037a24.114 24.114 0 0 0 24.11 24.063h44.4a8.25 8.25 0 0 0 8.244-8.238v-105.686a8.251 8.251 0 0 0 -8.244-8.239h-16.421a107.7 107.7 0 0 1 32.016-71.059 109.4 109.4 0 0 1 54.956-29.476v283.669zm373.315-28.016-.122.042a42.669 42.669 0 0 1 -33.154-2.4l-29.639-15.226c-13.585-6.978-26.466-9.414-37.784-7.252v-233.608q5.369-.514 10.84-.517a109.881 109.881 0 0 1 77.8 31.8 107.677 107.677 0 0 1 32.016 71.067h-15.5a8.251 8.251 0 0 0 -8.244 8.239v105.686a8.25 8.25 0 0 0 8.244 8.238h23.695a42.26 42.26 0 0 1 -28.152 33.931zm60.964-57.994a12.1 12.1 0 0 1 -12.11 12.063h-16.136v-98.163h16.136a12.1 12.1 0 0 1 12.11 12.063z"/><path d="m180.168 213.738a6 6 0 0 0 -6-6h-22.15a6 6 0 1 0 0 12h22.15a6 6 0 0 0 6-6z"/><path d="m69.868 219.738h60.142a6 6 0 0 0 0-12h-60.142a6 6 0 1 0 0 12z"/><path d="m154.168 257.666h-53.468a6 6 0 1 0 0 12h53.468a6 6 0 0 0 0-12z"/><path d="m69.868 269.666h9.18a6 6 0 0 0 0-12h-9.18a6 6 0 1 0 0 12z"/><path d="m154.168 307.666h-.042a6.021 6.021 0 1 0 .042 0z"/><path d="m132.048 307.666h-62.18a6 6 0 1 0 0 12h62.18a6 6 0 0 0 0-12z"/></g></svg>