<svg id="Layer_1" height="512" viewBox="0 0 512 512" width="512" xmlns="http://www.w3.org/2000/svg" data-name="Layer 1"><circle cx="174.68" cy="64.401" fill="#fbb040" r="17"/><path d="m204.63 120.171.01.02a51.572 51.572 0 0 1 -59.92.01v-.01a24 24 0 0 1 23.96-22.56h12a23.992 23.992 0 0 1 23.95 22.54z" fill="#fbb040"/><path d="m202.88 35.4a51.357 51.357 0 0 1 1.76 84.79l-.01-.02a23.992 23.992 0 0 0 -23.95-22.54h-12a24 24 0 0 0 -23.96 22.56 48.942 48.942 0 0 1 -3.85-3.04 51.427 51.427 0 0 1 62.01-81.75zm-11.2 29a17 17 0 1 0 -17 17 17 17 0 0 0 17-17z" fill="#fbedce"/><path d="m401.21 145.991a53.957 53.957 0 0 1 1.07 10.71 53.33 53.33 0 0 1 -53.36 53.299h-170.75a53.332 53.332 0 0 1 -53.35-53.3 54.134 54.134 0 0 1 1.01-10.29c2.15-11.2 7.63-21.86 15.04-29.26a48.942 48.942 0 0 0 3.85 3.04v.01a51.426 51.426 0 1 0 58.16-84.8 74.783 74.783 0 0 1 88.08 20.13 53.36 53.36 0 0 1 68.58 48.94 53.362 53.362 0 0 1 41.66 41.52z" fill="#49bdff"/><path d="m184.06 404.711v78.489a1.8 1.8 0 0 0 3.04 1.3l14.88-14.151a1.821 1.821 0 0 1 2.48 0l14.88 14.151a1.8 1.8 0 0 0 3.04-1.3v-78.489z" fill="#fb6771"/><path d="m184.06 404.711v41.62l-147.81-.3a20.244 20.244 0 0 1 -20.25-20.231v-231.089a20.244 20.244 0 0 1 20.25-20.23h20.37v210a20.238 20.238 0 0 0 20.25 20.23z" fill="#6d7486"/><path d="m256.63 423.481a3.17 3.17 0 0 0 2.2-.89l17.47-16.991a3.146 3.146 0 0 1 2.19-.89h176.18a2.006 2.006 0 0 0 2-2v-228.229h19.08a20.244 20.244 0 0 1 20.25 20.23v231.089a20.244 20.244 0 0 1 -20.25 20.23h-253.37v-41.32h12.42a3.146 3.146 0 0 1 2.19.89l17.47 16.99a3.082 3.082 0 0 0 2.17.891z" fill="#6d7486"/><path d="m258.83 422.591a3.17 3.17 0 0 1 -2.2.89l-2.13-212.84v-.641h94.42a53.33 53.33 0 0 0 53.36-53.3 53.957 53.957 0 0 0 -1.07-10.71h35.21a20.244 20.244 0 0 1 20.25 20.23v236.49a2.006 2.006 0 0 1 -2 2h-176.18a3.146 3.146 0 0 0 -2.19.89z" fill="#e5e5e5"/><path d="m254.5 210.64v-.64h-76.33a53.332 53.332 0 0 1 -53.35-53.3 54.142 54.142 0 0 1 1.01-10.29h-.02l-48.94-.42a20.238 20.238 0 0 0 -20.25 20.23v218.261a20.238 20.238 0 0 0 20.25 20.23h157.93a3.145 3.145 0 0 1 2.19.889l17.47 16.991a3.087 3.087 0 0 0 2.17.89z" fill="#e2e4ed"/><path d="m233.67 28.78a74.47 74.47 0 0 0 -30.79 6.62l11.949 12 11.542-7.673a63.176 63.176 0 0 1 22.184-9.4l.165-.033a75.061 75.061 0 0 0 -15.05-1.514z" fill="#5fa8ed"/><path d="m154.82 156.7a54.126 54.126 0 0 1 1.01-10.29 60.044 60.044 0 0 1 6.639-18.074 51.249 51.249 0 0 1 -17.749-8.136v-.011a48.7 48.7 0 0 1 -3.85-3.039c-7.41 7.4-12.89 18.06-15.04 29.26a54.126 54.126 0 0 0 -1.01 10.29 53.332 53.332 0 0 0 53.35 53.3h30a53.332 53.332 0 0 1 -53.35-53.3z" fill="#84d4f7"/><path d="m86.62 384.481v-218.261a20.221 20.221 0 0 1 17.339-20l-27.089-.23a20.238 20.238 0 0 0 -20.25 20.23v218.261a20.238 20.238 0 0 0 20.25 20.23h30a20.238 20.238 0 0 1 -20.25-20.23z" fill="#b0b5ca"/><g fill="#284268"><path d="m475.747 168.48h-13.076v-2.257a26.272 26.272 0 0 0 -26.253-26.231h-30.557a59.546 59.546 0 0 0 -40.675-40.325 59.394 59.394 0 0 0 -72.162-50.885 80.754 80.754 0 0 0 -89.672-20.095 57.375 57.375 0 0 0 -70.759 88.743 64.271 64.271 0 0 0 -11.5 22.938l-44.218-.376a26.272 26.272 0 0 0 -26.254 26.231v2.257h-14.368a26.272 26.272 0 0 0 -26.253 26.231v231.089a26.269 26.269 0 0 0 26.241 26.231l141.822.294v30.875a7.8 7.8 0 0 0 13.168 5.649l11.989-11.395 11.987 11.394a7.8 7.8 0 0 0 13.169-5.648v-31.172h247.371a26.272 26.272 0 0 0 26.253-26.228v-231.089a26.272 26.272 0 0 0 -26.253-26.231zm-39.329-16.488a14.258 14.258 0 0 1 14.253 14.231v232.485h-172.183a9.088 9.088 0 0 0 -6.371 2.587l-9.614 9.352-1.95-194.647h88.37a59.349 59.349 0 0 0 59.358-59.3c0-1.583-.067-3.153-.192-4.71zm-261.741-118.992a45.35 45.35 0 0 1 33.323 76.246 30.046 30.046 0 0 0 -27.32-17.614h-12a30.038 30.038 0 0 0 -27.321 17.613 45.35 45.35 0 0 1 33.318-76.245zm23.46 84.27a45.444 45.444 0 0 1 -46.921 0 18.016 18.016 0 0 1 17.461-13.638h12a18.02 18.02 0 0 1 17.46 13.638zm-56.48 8.062a57.382 57.382 0 0 0 73.188-87.932 68.8 68.8 0 0 1 71.52 21.981 6 6 0 0 0 6.323 1.895 47.364 47.364 0 0 1 60.858 43.424 6 6 0 0 0 4.81 5.648 47.3 47.3 0 0 1 -9.433 93.652h-170.749a47.384 47.384 0 0 1 -47.359-47.3 53.065 53.065 0 0 1 10.842-31.368zm-79.041 40.891a14.247 14.247 0 0 1 14.2-14.231l42.181.359c-.109 1.453-.184 2.906-.184 4.351a59.4 59.4 0 0 0 59.361 59.298h70.378l1.948 194.37-9.331-9.075a9.084 9.084 0 0 0 -6.37-2.587h-157.929a14.259 14.259 0 0 1 -14.254-14.231zm-26.363 273.805a14.258 14.258 0 0 1 -14.253-14.228v-231.089a14.258 14.258 0 0 1 14.253-14.231h14.363v204a26.273 26.273 0 0 0 26.254 26.228h101.193v29.614zm172.338 25.978a7.792 7.792 0 0 0 -10.744 0l-7.784 7.4v-62.7h26.313v62.7zm281.409-40.206a14.258 14.258 0 0 1 -14.253 14.231h-247.371v-29.32h5.26l16.636 16.181a9.089 9.089 0 0 0 12.743 0l16.636-16.181h175.017a8.011 8.011 0 0 0 8-8v-222.231h13.076a14.258 14.258 0 0 1 14.256 14.231z"/><path d="m151.283 262.9h58.672a6 6 0 0 0 0-12h-58.672a6 6 0 1 0 0 12z"/><path d="m95.863 262.9h33.437a6 6 0 1 0 0-12h-33.437a6 6 0 0 0 0 12z"/><path d="m209.955 301.479h-14.762a6 6 0 0 0 0 12h14.762a6 6 0 0 0 0-12z"/><path d="m95.863 313.479h77.046a6 6 0 0 0 0-12h-77.046a6 6 0 0 0 0 12z"/><path d="m209.955 352.056h-72.4a6 6 0 1 0 0 12h72.4a6 6 0 0 0 0-12z"/><path d="m95.863 364.056h19.577a6 6 0 0 0 0-12h-19.577a6 6 0 0 0 0 12z"/><path d="m391.883 256.9a6 6 0 0 0 6 6h14.6a6 6 0 0 0 0-12h-14.6a6 6 0 0 0 -6 6z"/><path d="m298.394 262.9h77.783a6 6 0 0 0 0-12h-77.783a6 6 0 0 0 0 12z"/><path d="m412.487 301.479h-72.127a6 6 0 0 0 0 12h72.127a6 6 0 0 0 0-12z"/><path d="m298.394 313.479h18.215a6 6 0 0 0 0-12h-18.215a6 6 0 0 0 0 12z"/><path d="m412.487 352.056h-37.944a6 6 0 0 0 0 12h37.944a6 6 0 0 0 0-12z"/><path d="m350.36 352.056h-51.966a6 6 0 0 0 0 12h51.966a6 6 0 0 0 0-12z"/><path d="m174.677 87.4a23 23 0 1 0 -23-23 23.026 23.026 0 0 0 23 23zm0-34a11 11 0 1 1 -11 11 11.012 11.012 0 0 1 11-11z"/></g></svg>