<svg id="Layer_1" height="512" viewBox="0 0 512 512" width="512" xmlns="http://www.w3.org/2000/svg" data-name="Layer 1"><path d="m256 390.78-205.5-125.799v185.27a45.71 45.71 0 0 0 45.67 45.749h319.66a45.71 45.71 0 0 0 45.67-45.75v-185.269z" fill="#e75163"/><path d="m126.87 190.651-.34 120.87-76.03-46.54v-14.981a20.619 20.619 0 0 1 9.83-17.57l66.2-41.78z" fill="#6d7486"/><path d="m461.5 250v14.98l-78.32 47.94v-124.42l68.49 43.93a20.619 20.619 0 0 1 9.83 17.57z" fill="#6d7486"/><path d="m383.18 99.281h-50.85a33.113 33.113 0 0 1 -33.28-32.94v-50.341z" fill="#b0b5ca"/><path d="m332.33 99.28a33.113 33.113 0 0 1 -33.28-32.939v-50.341h-138.51a33.1 33.1 0 0 0 -33.27 32.93l-.74 262.591v.009l129.47 79.25 127.18-77.85v-213.65z" fill="#e2e4ed"/><path d="m161.77 268.431a8.285 8.285 0 1 1 -8.25 8.29 8.265 8.265 0 0 1 8.25-8.29z" fill="#ffdb00"/><path d="m161.77 203.671a8.285 8.285 0 1 1 -8.25 8.29 8.265 8.265 0 0 1 8.25-8.29z" fill="#ffdb00"/><path d="m161.77 138.911a8.285 8.285 0 1 1 -8.25 8.28 8.262 8.262 0 0 1 8.25-8.28z" fill="#ffdb00"/><path d="m161.77 74.151a8.285 8.285 0 1 1 -8.25 8.28 8.262 8.262 0 0 1 8.25-8.28z" fill="#ffdb00"/><path d="m156.53 311.531v-.01l.74-262.59a33.1 33.1 0 0 1 33.27-32.931h-30a33.1 33.1 0 0 0 -33.27 32.931l-.74 262.59v.01l129.47 79.25 15-9.182z" fill="#b0b5ca"/><path d="m80.5 450.251v-166.9l-30-18.365v185.27a45.71 45.71 0 0 0 45.67 45.744h30a45.71 45.71 0 0 1 -45.67-45.749z" fill="#fb6771"/><g fill="#284268"><path d="m454.856 227.351-65.673-42.132v-85.943a6 6 0 0 0 -1.779-4.265l-84.131-83.275a6 6 0 0 0 -4.221-1.736h-138.51a39.146 39.146 0 0 0 -39.273 38.918l-.388 138.208-63.681 40.189a26.756 26.756 0 0 0 -12.7 22.685v200.255a51.764 51.764 0 0 0 51.667 51.745h319.666a51.764 51.764 0 0 0 51.667-51.745v-200.255a26.756 26.756 0 0 0 -12.644-22.649zm-6.43 10.132.107.067a14.679 14.679 0 0 1 6.967 12.45v11.625l-66.317 40.6v-102.748zm-143.374-207.102 63.54 62.9h-36.267a27.137 27.137 0 0 1 -27.273-26.935zm-171.783 18.554a27.137 27.137 0 0 1 27.273-26.935h132.51v44.341a39.15 39.15 0 0 0 39.273 38.935h44.858v204.29l-121.183 74.184-123.458-75.576zm-69.733 188.572 57.306-36.166-.28 99.5-64.062-39.218v-11.623a14.715 14.715 0 0 1 7.036-12.493zm352.297 252.493h-319.666a39.751 39.751 0 0 1 -39.667-39.745v-174.562l196.367 120.207a6.005 6.005 0 0 0 6.266 0l196.367-120.207v174.562a39.751 39.751 0 0 1 -39.667 39.745z"/><path d="m202.225 88.435h66.528a6 6 0 0 0 0-12h-66.528a6 6 0 1 0 0 12z"/><path d="m161.767 96.718a14.283 14.283 0 1 0 -14.242-14.283 14.279 14.279 0 0 0 14.242 14.283zm0-16.566a2.283 2.283 0 1 1 -2.242 2.283 2.265 2.265 0 0 1 2.242-2.283z"/><path d="m202.225 153.2h150.215a6 6 0 0 0 0-12h-150.215a6 6 0 0 0 0 12z"/><path d="m161.767 161.478a14.283 14.283 0 1 0 -14.242-14.278 14.278 14.278 0 0 0 14.242 14.278zm0-16.566a2.283 2.283 0 1 1 -2.242 2.284 2.265 2.265 0 0 1 2.242-2.284z"/><path d="m202.225 217.956h150.215a6 6 0 0 0 0-12h-150.215a6 6 0 0 0 0 12z"/><path d="m161.767 226.239a14.283 14.283 0 1 0 -14.242-14.283 14.278 14.278 0 0 0 14.242 14.283zm0-16.566a2.283 2.283 0 1 1 -2.242 2.283 2.265 2.265 0 0 1 2.242-2.283z"/><path d="m202.225 282.717h150.215a6 6 0 0 0 0-12h-150.215a6 6 0 0 0 0 12z"/><path d="m161.767 291a14.283 14.283 0 1 0 -14.242-14.282 14.278 14.278 0 0 0 14.242 14.282zm0-16.566a2.283 2.283 0 1 1 -2.242 2.284 2.265 2.265 0 0 1 2.242-2.285z"/></g></svg>