<svg id="Layer_1" height="512" viewBox="0 0 512 512" width="512" xmlns="http://www.w3.org/2000/svg" data-name="Layer 1"><path d="m266.63 494.821a2.446 2.446 0 0 1 -1.72.7l-1.95-195.54h.02a21.117 21.117 0 0 1 21.11-21.12h119.24a15.789 15.789 0 0 1 15.77 15.8v170.41a15.78 15.78 0 0 1 -15.77 15.79h-121.4a2.431 2.431 0 0 0 -1.7.69z" fill="#e5e5e5"/><path d="m262.96 299.981a21.123 21.123 0 0 0 -21.1-21.12h-116.9a15.788 15.788 0 0 0 -15.77 15.8v170.41a15.78 15.78 0 0 0 15.77 15.79h122.96a2.471 2.471 0 0 1 1.7.689l13.6 13.271a2.442 2.442 0 0 0 1.69.7z" fill="#f4f8fc"/><path d="m297.14 228.251a12.549 12.549 0 0 1 -1.91 18.04l-21.1 16.24a28.727 28.727 0 0 0 -9.94 14.33l-3.93 12.79a21.076 21.076 0 0 0 -18.4-10.79h-46.54l-15.95-20.961a33.029 33.029 0 0 1 -5.54-11.17l-7.79-28.19a24.13 24.13 0 0 0 -16.9-16.87l-1.69-.46a27.261 27.261 0 0 1 -11.46-6.44l-14.54-13.71a38.718 38.718 0 0 1 -6.87-8.68 26.941 26.941 0 0 0 -23.3-13.45 27.213 27.213 0 0 0 -5.21.51l-12.7 2.51-.68-.16c18.11-76.97 83.19-135.75 163.24-144.25l23.79 34.39a27.261 27.261 0 0 1 -.81 32.12l-6.44 8.37a20.122 20.122 0 0 1 -18.5 7.71l-7.3-.94a21.051 21.051 0 0 0 -20.82 10.24 20.353 20.353 0 0 1 -20.1 9.89l-16.86-2.14a22.051 22.051 0 0 0 -21.04 9.53 19.011 19.011 0 0 0 -.32 20.74l11.14 17.62a17.148 17.148 0 0 0 22.63 5.97l11.47-6.15a26.345 26.345 0 0 1 26.05.63l21.76 13.09a36.415 36.415 0 0 1 29.58 15.22l10.95 15.3c.66.93 1.37 1.83 2.1 2.7z" fill="#d8ff33"/><path d="m444.33 205.291c0 2.22-.04 4.45-.12 6.67l-12.58 1.27c-.48.04-.97.08-1.45.1l-3.6.17a17.562 17.562 0 0 0 -15.29 10.51l-.92 2.1a27.232 27.232 0 0 1 -24.94 16.33h-15.31a14.677 14.677 0 0 1 -14.59-13.23l-.61-6.14a17.526 17.526 0 0 0 -7.9-12.95 16.361 16.361 0 0 1 -7.47-13.75v-6.15a19.628 19.628 0 0 1 6.61-14.69l26.16-23.17a18.266 18.266 0 0 0 5.37-18.95 18.747 18.747 0 0 0 -15.63-13.19l-2.65-.33a20.425 20.425 0 0 1 -12.89-6.85 14.918 14.918 0 0 1 -1.72-17.19l24.94-41.19a183.207 183.207 0 0 1 17.5 14.99 189.626 189.626 0 0 1 57.09 135.64z" fill="#d8ff33"/><path d="m179.37 257.9 15.95 20.96h-70.36a15.789 15.789 0 0 0 -15.77 15.8v28.89c-26.87-32.64-41.52-72.65-41.52-118.26a190.036 190.036 0 0 1 5.02-43.5l.68.16 12.7-2.51a27.213 27.213 0 0 1 5.21-.51 26.941 26.941 0 0 1 23.3 13.45 38.718 38.718 0 0 0 6.87 8.68l14.54 13.71a27.261 27.261 0 0 0 11.46 6.44l1.69.46a24.13 24.13 0 0 1 16.9 16.87l7.79 28.19a33.029 33.029 0 0 0 5.54 11.17z" fill="#55d8d8"/><path d="m431.63 213.231 12.58-1.27a199.067 199.067 0 0 1 -25.11 88.96v-6.26a15.789 15.789 0 0 0 -15.77-15.8h-119.24a21.117 21.117 0 0 0 -21.11 21.12h-.02a20.979 20.979 0 0 0 -2.7-10.33l3.93-12.79a28.727 28.727 0 0 1 9.94-14.33l21.1-16.24a12.549 12.549 0 0 0 1.91-18.04l-13.93-16.42c-.73-.87-1.44-1.77-2.1-2.7l-10.95-15.3a36.415 36.415 0 0 0 -29.58-15.22l-21.76-13.09a26.345 26.345 0 0 0 -26.05-.63l-11.47 6.15a17.148 17.148 0 0 1 -22.63-5.97l-11.14-17.62a19.011 19.011 0 0 1 .32-20.74 22.051 22.051 0 0 1 21.04-9.53l16.86 2.14a20.353 20.353 0 0 0 20.1-9.89 21.051 21.051 0 0 1 20.82-10.24l7.3.94a20.122 20.122 0 0 0 18.5-7.71l6.44-8.37a27.261 27.261 0 0 0 .81-32.12l-23.79-34.39a190.02 190.02 0 0 1 20.07-1.06 189.845 189.845 0 0 1 113.74 38.18l-24.94 41.19a14.918 14.918 0 0 0 1.72 17.19 20.425 20.425 0 0 0 12.89 6.85l2.65.33a18.747 18.747 0 0 1 15.63 13.19 18.266 18.266 0 0 1 -5.37 18.95l-26.16 23.17a19.628 19.628 0 0 0 -6.61 14.69v6.15a16.361 16.361 0 0 0 7.47 13.75 17.526 17.526 0 0 1 7.9 12.95l.61 6.14a14.677 14.677 0 0 0 14.59 13.23h15.31a27.232 27.232 0 0 0 24.94-16.33l.92-2.1a17.562 17.562 0 0 1 15.29-10.51l3.6-.17c.48-.02.97-.06 1.45-.1z" fill="#55d8d8"/><path d="m86.07 159.44a27.292 27.292 0 0 1 5.21-.509 26.884 26.884 0 0 1 11.477 2.587 188.89 188.89 0 0 1 136.5-139.169l-3.327-4.808c-80.05 8.5-145.13 67.279-163.24 144.25l.68.16z" fill="#82bc2f"/><path d="m109.19 294.661a15.757 15.757 0 0 1 4.827-11.36c-10.7-23.566-16.347-49.709-16.347-78.01a190.023 190.023 0 0 1 5.02-43.5c.021-.092.045-.182.067-.273a26.884 26.884 0 0 0 -11.477-2.587 27.292 27.292 0 0 0 -5.21.509l-12.7 2.511-.68-.16a190.023 190.023 0 0 0 -5.02 43.5c0 45.609 14.65 85.619 41.52 118.259z" fill="#40bcb8"/><path d="m265.93 17.541q2.452-.261 4.924-.458c-4.9-.384-9.853-.6-14.854-.6a190.02 190.02 0 0 0 -20.07 1.06l3.327 4.808a187.135 187.135 0 0 1 26.673-4.81z" fill="#40bcb8"/><path d="m139.19 465.07v-170.41a15.788 15.788 0 0 1 15.77-15.8h-30a15.788 15.788 0 0 0 -15.77 15.8v170.41a15.78 15.78 0 0 0 15.77 15.791h30a15.78 15.78 0 0 1 -15.77-15.791z" fill="#e2e4ed"/><g fill="#284268"><path d="m230.324 307.321h-15.886a6 6 0 0 0 0 12h15.886a6 6 0 0 0 0-12z"/><path d="m138.458 319.321h54.142a6 6 0 1 0 0-12h-54.142a6 6 0 1 0 0 12z"/><path d="m230.324 350.233h-54.256a6 6 0 0 0 0 12h54.256a6 6 0 0 0 0-12z"/><path d="m138.458 362.233h15.765a6 6 0 0 0 0-12h-15.765a6 6 0 0 0 0 12z"/><path d="m230.324 393.144h-45.007a6 6 0 0 0 0 12h45.007a6 6 0 1 0 0-12z"/><path d="m138.458 405.144h25.7a6 6 0 1 0 0-12h-25.7a6 6 0 1 0 0 12z"/><path d="m230.324 436.056h-18.447a6 6 0 0 0 0 12h18.447a6 6 0 0 0 0-12z"/><path d="m190.488 436.056h-52.03a6 6 0 0 0 0 12h52.03a6 6 0 0 0 0-12z"/><path d="m388.009 307.321h-52.926a6 6 0 1 0 0 12h52.926a6 6 0 0 0 0-12z"/><path d="m296.143 319.321h17.551a6 6 0 1 0 0-12h-17.551a6 6 0 1 0 0 12z"/><path d="m388.009 350.233h-23.609a6 6 0 0 0 0 12h23.609a6 6 0 0 0 0-12z"/><path d="m296.143 362.233h45.932a6 6 0 0 0 0-12h-45.932a6 6 0 0 0 0 12z"/><path d="m388.009 393.144h-21.66a6 6 0 1 0 0 12h21.66a6 6 0 0 0 0-12z"/><path d="m296.143 405.144h48.85a6 6 0 0 0 0-12h-48.85a6 6 0 0 0 0 12z"/><path d="m388.009 436.056h-52.933a6 6 0 0 0 0 12h52.933a6 6 0 0 0 0-12z"/><path d="m312.7 436.056h-16.557a6 6 0 0 0 0 12h16.557a6 6 0 0 0 0-12z"/><path d="m431.408 121.339a194.239 194.239 0 0 0 -175.408-110.855c-107.153 0-194.329 87.388-194.329 194.8 0 45.68 13.973 86.164 41.517 120.378v139.4a21.808 21.808 0 0 0 21.769 21.8h121.51l12.563 12.256a8.391 8.391 0 0 0 11.786 0l12.564-12.255h119.95a21.808 21.808 0 0 0 21.769-21.8v-162.616a203.226 203.226 0 0 0 25.23-97.161 193.4 193.4 0 0 0 -18.921-83.947zm-10.838 5.152a181.52 181.52 0 0 1 17.759 78.8c0 .41-.018.825-.021 1.236l-7.28.734q-.56.057-1.121.082l-3.6.164a23.422 23.422 0 0 0 -20.51 14.1l-.922 2.1a21.238 21.238 0 0 1 -19.442 12.736h-15.317a8.642 8.642 0 0 1 -8.613-7.827l-.612-6.14a23.369 23.369 0 0 0 -10.61-17.392 10.33 10.33 0 0 1 -4.731-8.711v-6.15a13.626 13.626 0 0 1 4.585-10.2l26.165-23.173a24.321 24.321 0 0 0 7.13-25.178 24.752 24.752 0 0 0 -20.642-17.407l-2.642-.326a14.425 14.425 0 0 1 -9.112-4.841 8.926 8.926 0 0 1 -1.061-10.217l21.387-35.312q6.073 4.943 11.7 10.387a180.76 180.76 0 0 1 37.51 52.535zm-73.435-79.569q7.542 4.319 14.621 9.34l-22.091 36.48q-.042.069-.081.138a20.934 20.934 0 0 0 2.416 24.109 26.41 26.41 0 0 0 16.684 8.86l2.641.326a12.745 12.745 0 0 1 10.624 8.969 12.289 12.289 0 0 1 -3.6 12.722l-26.169 23.173a25.632 25.632 0 0 0 -8.63 19.181v6.15a22.286 22.286 0 0 0 10.214 18.787 11.426 11.426 0 0 1 5.185 8.507l.613 6.14a20.605 20.605 0 0 0 20.554 18.636h15.319a33.238 33.238 0 0 0 30.433-19.921l.922-2.1a11.5 11.5 0 0 1 10.065-6.928l3.6-.164c.593-.026 1.187-.07 1.778-.129l5.561-.561a196.75 196.75 0 0 1 -16.257 64.1 21.756 21.756 0 0 0 -18.205-9.867h-119.244a26.923 26.923 0 0 0 -13.326 3.513 22.584 22.584 0 0 1 7.023-9.09l21.1-16.245a18.539 18.539 0 0 0 2.826-26.67l-13.924-16.422c-.631-.745-1.237-1.523-1.8-2.313l-10.95-15.3a42.481 42.481 0 0 0 -32.733-17.695l-20.388-12.263a32.5 32.5 0 0 0 -31.989-.779l-11.464 6.157a11.208 11.208 0 0 1 -14.724-3.888l-11.139-17.631a12.955 12.955 0 0 1 .219-14.17 15.964 15.964 0 0 1 15.313-6.942l16.853 2.145a26.3 26.3 0 0 0 26.039-12.811 15.026 15.026 0 0 1 14.881-7.323l7.3.934a26.2 26.2 0 0 0 24.021-10l6.436-8.37a33.157 33.157 0 0 0 .986-39.195l-17.845-25.8q4.569-.23 9.193-.232a181.918 181.918 0 0 1 91.139 24.442zm-114.081-22.995 21.729 31.415a21.191 21.191 0 0 1 -.631 25.054l-6.435 8.37a14.178 14.178 0 0 1 -12.985 5.409l-7.3-.935a27 27 0 0 0 -26.754 13.152 14.322 14.322 0 0 1 -14.174 6.981l-16.854-2.145a27.906 27.906 0 0 0 -26.771 12.128 24.956 24.956 0 0 0 -.42 27.3l11.141 17.623a23.248 23.248 0 0 0 30.546 8.049l11.463-6.156a20.452 20.452 0 0 1 20.126.49l21.756 13.087a6.007 6.007 0 0 0 3.093.858 30.444 30.444 0 0 1 24.7 12.714l10.949 15.3c.754 1.054 1.564 2.093 2.408 3.089l13.925 16.423a6.538 6.538 0 0 1 -.994 9.4l-21.1 16.245a34.563 34.563 0 0 0 -12.019 17.322l-.865 2.812a26.95 26.95 0 0 0 -15.733-5.047h-43.563l-14.151-18.6a26.816 26.816 0 0 1 -4.528-9.137l-7.794-28.19a30.279 30.279 0 0 0 -21.1-21.055l-1.694-.463a21.2 21.2 0 0 1 -8.92-5.01l-14.537-13.717a32.349 32.349 0 0 1 -5.8-7.321 32.929 32.929 0 0 0 -34.868-15.816l-4.022.8c19.988-68.964 79.481-121.236 152.176-130.429zm-159.383 181.359a183.3 183.3 0 0 1 3.987-38.064l9.573-1.894a20.928 20.928 0 0 1 22.16 10.057 44.371 44.371 0 0 0 7.944 10.035l14.537 13.716a33.221 33.221 0 0 0 13.993 7.858l1.694.463a18.227 18.227 0 0 1 12.694 12.678l7.794 28.19a38.786 38.786 0 0 0 6.543 13.2l8.623 11.335h-58.256a21.808 21.808 0 0 0 -21.769 21.8v10.783c-19.588-29.214-29.517-62.822-29.517-100.157zm180.137 271.972a8.4 8.4 0 0 0 -5.892-2.4h-122.959a9.794 9.794 0 0 1 -9.769-9.8v-170.4a9.793 9.793 0 0 1 9.769-9.8h116.9a15.14 15.14 0 0 1 15.1 15.177l1.819 182.067zm159.292-12.192a9.794 9.794 0 0 1 -9.769 9.8h-121.4a8.4 8.4 0 0 0 -5.893 2.4l-5.256 5.127-1.822-182.4h.023a15.128 15.128 0 0 1 15.105-15.117h119.242a9.793 9.793 0 0 1 9.769 9.8z"/></g></svg>