<svg id="Layer_1" height="512" viewBox="0 0 512 512" width="512" xmlns="http://www.w3.org/2000/svg" data-name="Layer 1"><g fill="#66d0ff"><path d="m353.59 323.441h73.41a172.768 172.768 0 0 1 -42.33 113.65 169.317 169.317 0 0 0 -43.54-36.19c8.23-23.68 12.46-49.93 12.46-77.46z"/><path d="m256.43 378.271a167.847 167.847 0 0 1 84.7 22.63c-14.66 42.23-42.01 76.31-80.69 95.04q-2.2.06-4.44.06v-117.73z"/><path d="m170.93 401.071c14.67 42.16 42 76.17 80.63 94.87a169.943 169.943 0 0 1 -124.23-58.85 170.741 170.741 0 0 1 43.6-36.02z"/><path d="m363.16 184.211a148.326 148.326 0 0 1 24.79 23.37 176.032 176.032 0 0 1 -46.68 38.06 177.39 177.39 0 0 0 -25.3-48.45l42.21-9.52a8.31 8.31 0 0 0 4.98-3.46z"/><path d="m256.43 268.6c29.26.11 58.87-8.26 84.84-22.96 8.21 23.7 12.32 50.01 12.32 77.8h-97.59v-54.84z"/><path d="m256 323.441v54.83a169.486 169.486 0 0 0 -85.07 22.8c-8.27-23.73-12.52-50.03-12.52-77.63z"/><path d="m256 210.481v58.119a171.726 171.726 0 0 1 -85.56-23.05 170.3 170.3 0 0 1 26.63-49.57l56.81 14.24a8.979 8.979 0 0 0 2.12.261z"/><path d="m170.44 245.551c-8.14 23.53-12.03 49.71-12.03 77.89h-73.41c0-45.39 14.25-84.51 41.17-114.29a172.428 172.428 0 0 0 44.27 36.4z"/></g><path d="m256 480.311v15.689q-2.235 0-4.44-.06c-38.63-18.7-65.96-52.71-80.63-94.87a169.486 169.486 0 0 1 85.07-22.8z" fill="#3090fc"/><path d="m158.41 323.441c0 27.6 4.25 53.9 12.52 77.63a170.741 170.741 0 0 0 -43.6 36.02 172.768 172.768 0 0 1 -42.33-113.65z" fill="#3090fc"/><path d="m427 323.441h-73.41c0-27.79-4.11-54.1-12.32-77.8a176.032 176.032 0 0 0 46.68-38.06c25.83 30.69 39.05 71.419 39.05 115.86z" fill="#3090fc"/><path d="m315.97 197.191a177.39 177.39 0 0 1 25.3 48.45c-25.97 14.7-55.58 23.07-84.84 22.96h-.43v-58.12a9.418 9.418 0 0 0 2.18-.26z" fill="#3090fc"/><path d="m384.67 437.091a169.943 169.943 0 0 1 -124.23 58.85c38.68-18.73 66.03-52.81 80.69-95.04a169.317 169.317 0 0 1 43.54 36.19z" fill="#3090fc"/><path d="m256 323.441h97.59c0 27.53-4.23 53.78-12.46 77.46a167.847 167.847 0 0 0 -84.7-22.63h-.43z" fill="#3090fc"/><path d="m256 268.6v54.84h-97.59c0-28.18 3.89-54.36 12.03-77.89a171.726 171.726 0 0 0 85.56 23.05z" fill="#3090fc"/><path d="m154.86 184.211a8.16 8.16 0 0 0 3.85 2.15l38.36 9.62a170.3 170.3 0 0 0 -26.63 49.57 172.428 172.428 0 0 1 -44.27-36.4 161.412 161.412 0 0 1 28.69-24.94z" fill="#3090fc"/><path d="m264.03 121.481a24.264 24.264 0 0 1 -17.49.25l-94.76-32.421.67 89.12a8.254 8.254 0 0 0 2.41 5.781 8.168 8.168 0 0 0 3.85 2.15l95.17 23.859a8.981 8.981 0 0 0 2.12.261 9.419 9.419 0 0 0 2.18-.261l100-22.549a8.314 8.314 0 0 0 4.98-3.46 8.494 8.494 0 0 0 1.43-4.571l1.58-93.719z" fill="#e75163"/><path d="m406.52 59.771-135.11-42.48a24.272 24.272 0 0 0 -15.12-.16l-155.21 42.609a6.447 6.447 0 0 0 -.84 11.94l19.66 6.72v.009l31.88 10.9 94.76 32.421a24.264 24.264 0 0 0 17.49-.25l143.37-49.909a6.448 6.448 0 0 0 -.88-11.8z" fill="#6d7486"/><path d="m188.71 186.361a8.168 8.168 0 0 1 -3.85-2.15 8.254 8.254 0 0 1 -2.41-5.781l-.593-78.83-30.077-10.29.67 89.12a8.254 8.254 0 0 0 2.41 5.781 8.168 8.168 0 0 0 3.85 2.15z" fill="#fb6771"/><path d="m191.78 89.31-31.88-10.9v-.01l-19.66-6.72a6.447 6.447 0 0 1 .84-11.94l141.656-38.888-11.326-3.561a24.272 24.272 0 0 0 -15.12-.16l-155.21 42.609a6.447 6.447 0 0 0 -.84 11.94l19.66 6.72v.009l31.88 10.9 94.76 32.421a24.264 24.264 0 0 0 17.49-.25l10.8-3.758z" fill="#ccd3df"/><path d="m157.33 437.091a173.236 173.236 0 0 1 -13.007-17.016 171.462 171.462 0 0 0 -16.993 17.016 169.939 169.939 0 0 0 124.23 58.849q-5.976-2.892-11.583-6.275a170.826 170.826 0 0 1 -82.647-52.574z" fill="#9ce5ff"/><path d="m142.983 225.978a170.213 170.213 0 0 1 -16.813-16.827c-26.92 29.78-41.17 68.9-41.17 114.289h30c0-37.288 9.625-70.34 27.983-97.462z" fill="#9ce5ff"/><path d="m144.323 420.075a172.815 172.815 0 0 1 -29.323-96.635h-30a172.769 172.769 0 0 0 42.33 113.651 171.462 171.462 0 0 1 16.993-17.016z" fill="#5cb2ff"/><path d="m142.983 225.978a152.5 152.5 0 0 1 13.187-16.827 159.143 159.143 0 0 1 19.851-18.451l-17.311-4.341a8.168 8.168 0 0 1 -3.85-2.15 161.371 161.371 0 0 0 -28.69 24.94 170.213 170.213 0 0 0 16.813 16.829z" fill="#5cb2ff"/><path d="m416.355 241.8a157.454 157.454 0 0 0 -46.011-59.623l1.756-91.962 37.679-13.115.383-.2a12.446 12.446 0 0 0 -1.711-22.8l-135.178-42.5a30.08 30.08 0 0 0 -18.675-.219l-155.108 42.574-.21.062a12.444 12.444 0 0 0 -1.634 23.069l.317.152 15.937 5.452v65.51a6 6 0 0 0 12 0v-61.4l19.917 6.814 1.219 88.79a160.5 160.5 0 0 0 -49.48 58.063c-12.314 24.518-18.556 52.433-18.556 82.972 0 98.461 79.4 178.561 177 178.561s177-80.1 177-178.561c0-29.631-5.6-57.099-16.645-81.639zm-28.655-25c20.623 26.9 32.144 61.423 33.208 100.637h-61.387c-.519-24.718-4.242-47.944-11.009-69.105a182.238 182.238 0 0 0 39.188-31.532zm-7.739-9.29a169.542 169.542 0 0 1 -35.531 29.273 184.458 184.458 0 0 0 -18.4-35.711l33.538-7.564a14.224 14.224 0 0 0 3.83-1.533 143.2 143.2 0 0 1 16.567 15.537zm-117.961 109.929v-42.921c25.9-.826 52.082-8 75.8-20.226a232.859 232.859 0 0 1 9.722 63.147zm85.51 12a231.146 231.146 0 0 1 -9.776 62.721 173.423 173.423 0 0 0 -75.734-19.815v-42.906zm-85.51-66.932v-46.993l51.434-11.6a171.48 171.48 0 0 1 20.466 38.925c-22.423 11.848-47.289 18.82-71.9 19.668zm-106.984-71.063a13.975 13.975 0 0 0 2.236.737l29.692 7.444a176.383 176.383 0 0 0 -19.614 36.966 165.866 165.866 0 0 1 -33-27.348 155.368 155.368 0 0 1 20.686-17.799zm-46.74 54.4a146.817 146.817 0 0 1 18-27.648 178.189 178.189 0 0 0 36.961 29.957q-10.007 31.376-10.768 69.285h-61.375c.758-26.3 6.524-50.361 17.182-71.593zm19.3 182.043a166.667 166.667 0 0 1 -36.459-98.449h61.373a242.006 242.006 0 0 0 11.17 68.99 176.962 176.962 0 0 0 -36.083 29.46zm7.871 9.146a165.017 165.017 0 0 1 32.319-27.019c12.417 31.934 32.025 58.4 57.551 77.086a164.5 164.5 0 0 1 -89.869-50.066zm114.553 51.38c-32.835-17.271-57.52-46.883-71.74-84.556a163.509 163.509 0 0 1 71.74-19.467zm0-116.033a175.4 175.4 0 0 0 -75.676 19.962 231.062 231.062 0 0 1 -9.834-62.9h85.51zm0-54.941h-85.523q.7-34.488 9.445-63.233a178.455 178.455 0 0 0 76.078 20.286zm0-54.958a166.605 166.605 0 0 1 -72.164-19.781 164 164 0 0 1 21.624-39.94l50.54 12.674zm5.343-58.078-95.243-23.878a2.185 2.185 0 0 1 -1.653-2.137l-.6-80.664 86.688 29.658a30.242 30.242 0 0 0 21.6-.276l31.83-11.081a6 6 0 1 0 -3.945-11.333l-31.956 11.125-.265.1a18.262 18.262 0 0 1 -13.173.183l-107.453-36.761 69.062-17.014a6 6 0 1 0 -2.87-11.651l-87.194 21.48-17.484-5.982a.408.408 0 0 1 -.081-.332c.018-.245.1-.313.205-.352l155.066-42.576.218-.064a18.166 18.166 0 0 1 11.385.125l135.151 42.5c.1.038.2.1.219.354a.454.454 0 0 1 -.06.3l-66.582 23.18a6 6 0 0 0 3.945 11.333l17.873-6.222-1.435 85.125a2.358 2.358 0 0 1 -1.729 2.277l-100.062 22.566a3.257 3.257 0 0 1 -1.457.014zm6.657 179.953a161.536 161.536 0 0 1 71.81 19.324c-14.21 37.758-38.923 67.435-71.81 84.733zm24.682 102.744c25.57-18.714 45.2-45.242 57.616-77.25a163.255 163.255 0 0 1 32.273 27.163 164.5 164.5 0 0 1 -89.889 50.087zm97.761-59.239a175.191 175.191 0 0 0 -36.043-29.605 242.114 242.114 0 0 0 11.114-68.817h61.373a166.667 166.667 0 0 1 -36.444 98.423z" fill="#284268"/><path d="m311.638 110.912a5.991 5.991 0 0 0 1.972-.335l12.214-4.252a6 6 0 1 0 -3.946-11.333l-12.213 4.252a6 6 0 0 0 1.973 11.668z" fill="#284268"/></svg>