<svg id="Layer_1" height="512" viewBox="0 0 512 512" width="512" xmlns="http://www.w3.org/2000/svg" data-name="Layer 1"><path d="m408.4 79.371h-271.85v339.579h273.49v-339.579z" fill="#e2e4ed"/><path d="m136.55 79.371h30v339.58h-30z" fill="#ccd3df"/><path d="m410.04 418.951v36.47a45.584 45.584 0 0 1 -45.58 45.579h-182.32a45.586 45.586 0 0 1 -45.59-45.58v-36.47z" fill="#6d7486"/><circle cx="199.75" cy="145.881" fill="#f5cac1" r="24"/><path d="m239.75 225.881h-80a40 40 0 1 1 80 0z" fill="#fbb040"/><path d="m374.25 396.5h-80a40 40 0 0 1 80 0z" fill="#5fa8ed"/><circle cx="334.25" cy="316.501" fill="#ffc9c0" r="24"/><path d="m260.66 354.731c-2.36-.66-8.96-.451-14.98-2.58s-11.45-6.6-11.45-16.621v-42.709a14.437 14.437 0 0 0 -14.43-14.44h-144.36a14.439 14.439 0 0 0 -14.44 14.44v89.239a14.434 14.434 0 0 0 14.44 14.44h144.36a14.432 14.432 0 0 0 14.43-14.441v-5.869a5 5 0 0 1 4.03-4.951c18.57-3.278 22.67-16.239 22.67-16.239.15-.09.04-.19-.27-.269z" fill="#8dc63f"/><path d="m436.56 107.76h-144.36a14.438 14.438 0 0 0 -14.43 14.44v42.721c0 10.02-5.43 14.489-11.45 16.62s-12.62 1.909-14.98 2.57c-.31.089-.42.18-.27.279 0 0 4.1 12.96 22.67 16.241a4.975 4.975 0 0 1 4.03 4.94v5.879a14.43 14.43 0 0 0 14.43 14.431h144.36a14.432 14.432 0 0 0 14.44-14.431v-89.25a14.441 14.441 0 0 0 -14.44-14.44z" fill="#fb6771"/><path d="m364.46 10h-182.32a45.586 45.586 0 0 0 -45.59 45.58v22.79h273.49v-22.79a45.584 45.584 0 0 0 -45.58-45.58z" fill="#6d7486"/><path d="m273.3 442.881a17.1 17.1 0 1 1 -17.1 17.1 17.1 17.1 0 0 1 17.1-17.1z" fill="#e75163"/><path d="m166.55 455.421v-36.47h-30v36.47a45.585 45.585 0 0 0 45.59 45.579h30a45.585 45.585 0 0 1 -45.59-45.579z" fill="#4a5160"/><path d="m91 382.06v-89.24a14.439 14.439 0 0 1 14.44-14.439h-30a14.439 14.439 0 0 0 -14.44 14.439v89.24a14.434 14.434 0 0 0 14.44 14.44h30a14.434 14.434 0 0 1 -14.44-14.44z" fill="#c6e02d"/><path d="m307.77 211.45v-5.88a4.975 4.975 0 0 0 -4.03-4.939c-18.57-3.281-22.67-16.241-22.67-16.241-.15-.1-.04-.19.27-.279 2.36-.661 8.96-.451 14.98-2.57s11.45-6.6 11.45-16.62v-42.721a14.438 14.438 0 0 1 14.43-14.44h-30a14.438 14.438 0 0 0 -14.43 14.44v42.721c0 10.02-5.43 14.489-11.45 16.62s-12.62 1.909-14.98 2.57c-.31.089-.42.18-.27.279 0 0 4.1 12.96 22.67 16.241a4.975 4.975 0 0 1 4.03 4.939v5.88a14.43 14.43 0 0 0 14.43 14.431h30a14.43 14.43 0 0 1 -14.43-14.431z" fill="#e75163"/><path d="m212.14 10h-30a45.586 45.586 0 0 0 -45.59 45.58v22.79h30v-22.79a45.586 45.586 0 0 1 45.59-45.58z" fill="#4a5160"/><g fill="#284268"><path d="m351.578 85.372h12.666a6 6 0 0 0 0-12h-12.666a6 6 0 0 0 0 12z"/><path d="m273.3 436.883a23.094 23.094 0 1 0 23.093 23.094 23.119 23.119 0 0 0 -23.093-23.094zm0 34.187a11.094 11.094 0 1 1 11.093-11.093 11.106 11.106 0 0 1 -11.093 11.093z"/><path d="m334.251 346.5a30 30 0 1 0 -30-30 30.034 30.034 0 0 0 30 30zm0-48a18 18 0 1 1 -18 18 18.021 18.021 0 0 1 18-18z"/><path d="m294.251 402.5h80a6 6 0 0 0 6-6 46 46 0 1 0 -92 0 6 6 0 0 0 6 6zm40-40a34.057 34.057 0 0 1 33.47 28h-66.94a34.057 34.057 0 0 1 33.47-28z"/><path d="m199.749 175.885a30 30 0 1 0 -30-30 30.034 30.034 0 0 0 30 30zm0-48a18 18 0 1 1 -18 18 18.021 18.021 0 0 1 18-18z"/><path d="m199.749 179.885a46.052 46.052 0 0 0 -46 46 6 6 0 0 0 6 6h80a6 6 0 0 0 6-6 46.052 46.052 0 0 0 -46-46zm-33.47 40a34 34 0 0 1 66.94 0z"/><path d="m436.564 101.765h-20.522v-45.184a51.639 51.639 0 0 0 -51.581-51.581h-182.326a51.639 51.639 0 0 0 -51.581 51.581v215.8h-55.118a20.46 20.46 0 0 0 -20.436 20.438v89.246a20.46 20.46 0 0 0 20.436 20.435h55.118v52.917a51.639 51.639 0 0 0 51.581 51.583h182.326a51.639 51.639 0 0 0 51.581-51.581v-223.534h20.522a20.46 20.46 0 0 0 20.436-20.437v-89.248a20.46 20.46 0 0 0 -20.436-20.435zm-369.564 280.3v-89.246a8.446 8.446 0 0 1 8.437-8.437h144.363a8.446 8.446 0 0 1 8.436 8.437v42.716c0 17.632 13.067 22.376 22.225 23.935a27.013 27.013 0 0 1 -13.244 5.867 10.946 10.946 0 0 0 -8.981 10.853v5.875a8.446 8.446 0 0 1 -8.436 8.435h-144.364a8.446 8.446 0 0 1 -8.436-8.435zm297.461 112.935h-182.326a39.626 39.626 0 0 1 -39.581-39.581v-30.466h261.488v30.466a39.626 39.626 0 0 1 -39.581 39.581zm39.581-82.047h-261.488v-10.453h77.246a20.46 20.46 0 0 0 20.436-20.437v-5.083c18.568-3.645 24.745-15.959 26.109-19.33a6.061 6.061 0 0 0 .592-3.612 6.189 6.189 0 0 0 -4.658-5.09 28.373 28.373 0 0 0 -4.835-.7c-11.413-1.067-17.208-3.325-17.208-12.712v-42.717a20.46 20.46 0 0 0 -20.436-20.437h-77.246v-187.01h186.581a6 6 0 0 0 0-12h-186.581v-16.791a39.626 39.626 0 0 1 39.581-39.581h182.326a39.626 39.626 0 0 1 39.581 39.581v16.791h-16.79a6 6 0 0 0 0 12h16.79v16.393h-111.842a20.46 20.46 0 0 0 -20.434 20.435v42.717c0 9.385-5.8 11.644-17.208 12.711a28.473 28.473 0 0 0 -4.835.7 6.189 6.189 0 0 0 -4.658 5.091 6.059 6.059 0 0 0 .592 3.611c1.364 3.371 7.541 15.685 26.109 19.33v5.085a20.46 20.46 0 0 0 20.434 20.44h111.84zm40.958-201.505a8.446 8.446 0 0 1 -8.437 8.437h-144.363a8.446 8.446 0 0 1 -8.436-8.437v-5.875a10.945 10.945 0 0 0 -8.981-10.853 27.049 27.049 0 0 1 -13.249-5.865c9.158-1.559 22.23-6.3 22.23-23.936v-42.719a8.446 8.446 0 0 1 8.436-8.437h144.364a8.446 8.446 0 0 1 8.436 8.437z"/><path d="m417 195.885h-72.346a6 6 0 0 0 0 12h72.346a6 6 0 0 0 0-12z"/><path d="m321.22 195.885h-10.22a6 6 0 0 0 0 12h10.22a6 6 0 0 0 0-12z"/><path d="m417 162.97h-10.764a6 6 0 0 0 0 12h10.764a6 6 0 0 0 0-12z"/><path d="m311 174.97h71.343a6 6 0 0 0 0-12h-71.343a6 6 0 0 0 0 12z"/><path d="m417 130.056h-60.04a6 6 0 0 0 0 12h60.04a6 6 0 0 0 0-12z"/><path d="m311 142.056h22.684a6 6 0 0 0 0-12h-22.684a6 6 0 0 0 0 12z"/><path d="m201 364.356h-72.349a6 6 0 0 0 0 12h72.349a6 6 0 1 0 0-12z"/><path d="m105.217 364.356h-10.217a6 6 0 0 0 0 12h10.218a6 6 0 0 0 0-12z"/><path d="m201 331.442h-10.766a6 6 0 0 0 0 12h10.766a6 6 0 1 0 0-12z"/><path d="m95 343.442h71.342a6 6 0 0 0 0-12h-71.342a6 6 0 0 0 0 12z"/><path d="m201 298.528h-60.042a6 6 0 1 0 0 12h60.042a6 6 0 1 0 0-12z"/><path d="m95 310.528h22.683a6 6 0 1 0 0-12h-22.683a6 6 0 0 0 0 12z"/></g></svg>