<svg id="Layer_1" height="512" viewBox="0 0 512 512" width="512" xmlns="http://www.w3.org/2000/svg" data-name="Layer 1"><path d="m445.61 55.5h-374.86a23.709 23.709 0 0 0 -23.72 23.7v266.44h135.01a11.858 11.858 0 0 1 11.86 11.85 11.847 11.847 0 0 0 11.86 11.851h94.87a11.852 11.852 0 0 0 11.86-11.851 11.849 11.849 0 0 1 11.86-11.85h144.98v-266.44a23.709 23.709 0 0 0 -23.72-23.7z" fill="#ccd3df"/><path d="m425.71 96.56h-335.07a4.268 4.268 0 0 0 -4.27 4.271v203.86a4.268 4.268 0 0 0 4.27 4.27h335.07a4.277 4.277 0 0 0 4.28-4.27v-203.86a4.277 4.277 0 0 0 -4.28-4.271z" fill="#a0eaea"/><path d="m116.37 304.691v-203.86a4.268 4.268 0 0 1 4.27-4.271h-30a4.268 4.268 0 0 0 -4.27 4.271v203.86a4.268 4.268 0 0 0 4.27 4.27h30a4.268 4.268 0 0 1 -4.27-4.27z" fill="#88ced8"/><path d="m469.76 345.64h-145.41a11.849 11.849 0 0 0 -11.86 11.85 11.852 11.852 0 0 1 -11.86 11.851h-94.87a11.847 11.847 0 0 1 -11.86-11.851 11.858 11.858 0 0 0 -11.86-11.85h-139.8a26.221 26.221 0 1 0 0 52.441h427.52a26.232 26.232 0 0 0 26.24-26.22v-.02a26.235 26.235 0 0 0 -26.24-26.201z" fill="#6d7486"/><path d="m228.22 167.1a52.914 52.914 0 0 1 -16.9 40.24 38.086 38.086 0 0 0 -12.3 27.84v.04h-47.81a37.936 37.936 0 0 0 -3.11-15.08 36.9 36.9 0 0 0 -8.91-12.54 53.1 53.1 0 1 1 89.03-40.5z" fill="#fff655"/><path d="m199.02 252.781v8.94a8.166 8.166 0 0 1 -8.18 8.16h-31.46a8.164 8.164 0 0 1 -8.17-8.16v-26.5h47.81z" fill="#fb6771"/><path d="m177.05 176.631a8.98 8.98 0 1 1 -8.98 8.98 8.982 8.982 0 0 1 8.98-8.98z" fill="#fb6771"/><path d="m416.46 399.091v10.67h-27.5v-46.73a27.777 27.777 0 0 1 27.5 27.78z" fill="#e2e4ed"/><path d="m388.96 363.031v46.73h-28.08v-18.95a27.787 27.787 0 0 1 27.79-27.79 2.81 2.81 0 0 1 .29.01z" fill="#b0b5ca"/><path d="m388.96 409.761h27.5v18.97a27.766 27.766 0 0 1 -27.77 27.77h-.04a27.766 27.766 0 0 1 -27.77-27.77v-18.97z" fill="#e2e4ed"/><g fill="#284268"><path d="m293.859 192.654a6 6 0 0 0 12 0v-21.221a27.934 27.934 0 0 0 -55.867 0v92.036a12.426 12.426 0 0 1 -12.419 12.4h-44.8c-.448 0-.876-.01-1.3-.022a14.174 14.174 0 0 0 13.55-14.134v-26.533a32.231 32.231 0 0 1 10.389-23.444 59.121 59.121 0 1 0 -80.275.289 31.5 31.5 0 0 1 10.077 23.195v26.5a14.185 14.185 0 0 0 14.172 14.166h8.544c4.391 7.955 12.719 11.99 24.845 11.99h44.8a24.439 24.439 0 0 0 24.419-24.4v-92.043a15.934 15.934 0 0 1 31.867 0zm-150.614 10.529a47.077 47.077 0 0 1 31.865-81.757h.443a47.207 47.207 0 0 1 46.665 45.83 47.129 47.129 0 0 1 -14.988 35.694 44.534 44.534 0 0 0 -13.776 26.268h-10.4v-29.9a14.987 14.987 0 1 0 -12 0v29.9h-14.27a43.372 43.372 0 0 0 -13.539-26.035zm30.821-17.575a2.987 2.987 0 1 1 2.987 2.979 2.986 2.986 0 0 1 -2.987-2.979zm-16.858 76.109v-3.039a5.995 5.995 0 0 0 0-11.8v-5.658h35.809v5.559h-22.169a6 6 0 0 0 0 12h22.169v2.938a2.172 2.172 0 0 1 -2.172 2.166h-31.465a2.172 2.172 0 0 1 -2.172-2.166z"/><path d="m299.859 205.905a6 6 0 0 0 -6 6v13.236a6 6 0 1 0 12 0v-13.236a6 6 0 0 0 -6-6z"/><path d="m382.961 216.684a6 6 0 0 0 12 0v-19.7a27.864 27.864 0 0 0 -55.728 0v71.64a16.687 16.687 0 0 1 -33.374 0v-23.624a6 6 0 0 0 -12 0v23.631a28.687 28.687 0 0 0 57.374 0v-71.64a15.864 15.864 0 0 1 31.728 0z"/><path d="m394.961 235.113a6 6 0 0 0 -12 0v44.064a6 6 0 0 0 12 0z"/><path d="m475.327 340.134v-260.934a29.743 29.743 0 0 0 -29.72-29.7h-374.858a29.743 29.743 0 0 0 -29.72 29.7v260.474a32.214 32.214 0 0 0 1.192 64.407l312.662.992v23.662a33.8 33.8 0 0 0 33.765 33.765h.046a33.8 33.8 0 0 0 33.766-33.765v-23.755l47.36-.9a32.214 32.214 0 0 0 5.507-63.947zm-404.578-278.634h374.858a17.73 17.73 0 0 1 17.72 17.7v260.443h-68.366v-24.679h30.752a10.282 10.282 0 0 0 10.272-10.264v-203.871a10.281 10.281 0 0 0 -10.272-10.268h-335.07a10.281 10.281 0 0 0 -10.272 10.268v203.871a10.282 10.282 0 0 0 10.272 10.269h292.318v24.679h-58.608a17.876 17.876 0 0 0 -17.86 17.85 5.862 5.862 0 0 1 -5.86 5.85h-94.878a5.861 5.861 0 0 1 -5.859-5.85 17.876 17.876 0 0 0 -17.86-17.85h-129.007v-260.448a17.73 17.73 0 0 1 17.72-17.7zm318.212 229.379a6 6 0 0 0 -6 6v6.085h-290.59v-200.4h331.614v200.4h-29.024v-6.085a6 6 0 0 0 -6-6zm-346.721 101.202a20.219 20.219 0 1 1 0-40.438h139.8a5.862 5.862 0 0 1 5.86 5.85 17.875 17.875 0 0 0 17.859 17.85h94.878a17.875 17.875 0 0 0 17.86-17.85 5.862 5.862 0 0 1 5.86-5.85h58.608v5.867a33.838 33.838 0 0 0 -28.078 33.3v2.267zm368.22 11.678h-15.5v-33.812a21.826 21.826 0 0 1 15.5 20.859zm-43.577 0v-12.953a21.826 21.826 0 0 1 16.078-21.024v33.977zm21.811 46.741h-.046a21.79 21.79 0 0 1 -21.765-21.765v-12.976h20.145a5.914 5.914 0 0 0 3.867 0h19.565v12.976a21.79 21.79 0 0 1 -21.766 21.765zm95.387-64.35a20.12 20.12 0 0 1 -14.321 5.931h-.114l-47.186.9v-2.172a33.838 33.838 0 0 0 -27.5-33.192v-5.971h74.8a20.215 20.215 0 0 1 14.321 34.507z"/></g></svg>