<svg id="Layer_1" height="512" viewBox="0 0 512 512" width="512" xmlns="http://www.w3.org/2000/svg" data-name="Layer 1"><path d="m424.03 436.671a22.31 22.31 0 0 1 -22.31 22.329h-363.41a22.305 22.305 0 1 1 0-44.61h118.83a10.076 10.076 0 0 1 10.08 10.08 10.089 10.089 0 0 0 10.08 10.08h80.66a10.083 10.083 0 0 0 10.08-10.08 10.072 10.072 0 0 1 10.08-10.08h123.6a22.3 22.3 0 0 1 22.31 22.281z" fill="#6d7486"/><path d="m401.36 414.041v.35h-123.24a10.072 10.072 0 0 0 -10.08 10.08 10.083 10.083 0 0 1 -10.08 10.08h-80.66a10.089 10.089 0 0 1 -10.08-10.08 10.076 10.076 0 0 0 -10.08-10.08h-114.76v-226.67c0-11.13 9.02-20.16 30.16-20.16h145.62v35.23l-138.71-.3a3.636 3.636 0 0 0 -3.63 3.63v173.43a3.638 3.638 0 0 0 3.63 3.64h284.83a3.632 3.632 0 0 0 3.63-3.64v-140.5h33.45z" fill="#ccd3df"/><path d="m208.16 202.791-128.71-.3a3.637 3.637 0 0 0 -3.63 3.631v173.428a3.639 3.639 0 0 0 3.63 3.641h284.83a3.633 3.633 0 0 0 3.63-3.641v-130.5z" fill="#a0eaea"/><path d="m496 87.911v126.23a34.906 34.906 0 0 1 -34.92 34.91h-115.18l-65.9 45.77v-45.77h-36.92a34.906 34.906 0 0 1 -34.92-34.91v-126.23a34.906 34.906 0 0 1 34.92-34.911h218a34.906 34.906 0 0 1 34.92 34.911z" fill="#fb6771"/><path d="m238.16 214.14v-126.23a34.906 34.906 0 0 1 34.92-34.91h-30a34.906 34.906 0 0 0 -34.92 34.91v126.23a34.906 34.906 0 0 0 34.92 34.91h30a34.906 34.906 0 0 1 -34.92-34.91z" fill="#ff99a8"/><path d="m310 249.05h-30v45.771l30-20.836z" fill="#ff99a8"/><g fill="#284268"><path d="m461.083 47h-218a40.964 40.964 0 0 0 -40.918 40.916v73.643h-139.625a26.193 26.193 0 0 0 -26.163 26.162v220.743a28.3 28.3 0 0 0 1.929 56.536h363.419a28.305 28.305 0 0 0 5.632-56.045v-153.9h53.726a40.963 40.963 0 0 0 40.917-40.916v-126.223a40.963 40.963 0 0 0 -40.917-40.916zm-218 208.055h30.917v39.762a6 6 0 0 0 9.422 4.928l64.358-44.69h14.134v122.131h-280.094v-168.686l120.343.281v5.362a40.964 40.964 0 0 0 40.918 40.912zm174.95 181.624a16.306 16.306 0 0 1 -16.308 16.321h-363.419a16.305 16.305 0 1 1 0-32.61h118.835a4.086 4.086 0 0 1 4.082 4.081 16.1 16.1 0 0 0 16.077 16.081h80.653a16.1 16.1 0 0 0 16.081-16.081 4.086 4.086 0 0 1 4.082-4.081h123.609a16.328 16.328 0 0 1 16.306 16.289zm-22.676-28.289h-117.237a16.1 16.1 0 0 0 -16.082 16.081 4.086 4.086 0 0 1 -4.081 4.081h-80.657a4.086 4.086 0 0 1 -4.081-4.081 16.1 16.1 0 0 0 -16.082-16.081h-108.76v-220.669a14.178 14.178 0 0 1 14.163-14.162h139.623v23.218l-122.712-.287a9.642 9.642 0 0 0 -9.631 9.632v173.433a9.642 9.642 0 0 0 9.631 9.631h284.832a9.642 9.642 0 0 0 9.631-9.631v-124.5h21.443zm94.643-194.251a28.949 28.949 0 0 1 -28.917 28.916h-115.183a6 6 0 0 0 -3.423 1.072l-56.477 39.218v-34.29a6 6 0 0 0 -6-6h-36.919a28.949 28.949 0 0 1 -28.918-28.916v-126.223a28.949 28.949 0 0 1 28.918-28.916h218a28.949 28.949 0 0 1 28.919 28.916z"/><path d="m446.977 88.751h-152.3a6 6 0 0 0 0 12h152.3a6 6 0 0 0 0-12z"/><path d="m269.955 88.751h-19.168a6 6 0 0 0 0 12h19.168a6 6 0 0 0 0-12z"/><path d="m446.977 143.169h-152.3a6 6 0 0 0 0 12h152.3a6 6 0 0 0 0-12z"/><path d="m269.955 143.169h-19.168a6 6 0 0 0 0 12h19.168a6 6 0 0 0 0-12z"/><path d="m446.977 197.588h-152.3a6 6 0 0 0 0 12h152.3a6 6 0 0 0 0-12z"/><path d="m269.955 197.588h-19.168a6 6 0 0 0 0 12h19.168a6 6 0 0 0 0-12z"/><path d="m281.6 320h62.132a6 6 0 0 0 0-12h-62.132a6 6 0 0 0 0 12z"/><path d="m136.6 314a6 6 0 0 0 6 6h117.877a6 6 0 0 0 0-12h-117.877a6 6 0 0 0 -6 6z"/><path d="m101.994 320h18.483a6 6 0 0 0 0-12h-18.483a6 6 0 0 0 0 12z"/><path d="m196.918 275.653a6 6 0 0 0 6 6h35.182a6 6 0 0 0 0-12h-35.182a6 6 0 0 0 -6 6z"/><path d="m101.994 281.653h78.483a6 6 0 0 0 0-12h-78.483a6 6 0 0 0 0 12z"/><path d="m101.994 243.307h48.483a6 6 0 0 0 0-12h-48.483a6 6 0 0 0 0 12z"/><path d="m200.117 352.344a6 6 0 0 0 6 6h139.683a6 6 0 0 0 0-12h-139.683a6 6 0 0 0 -6 6z"/><path d="m184.326 346.344h-16.391a6 6 0 0 0 0 12h16.391a6 6 0 0 0 0-12z"/><path d="m146.686 346.344h-44.692a6 6 0 1 0 0 12h44.692a6 6 0 0 0 0-12z"/></g></svg>