<svg id="Layer_1" height="512" viewBox="0 0 512 512" width="512" xmlns="http://www.w3.org/2000/svg" data-name="Layer 1"><path d="m292.09 415.641-.53 48.99a31.355 31.355 0 0 1 -31.33 31.369h-204.9a31.355 31.355 0 0 1 -31.33-31.369v-49h267.56z" fill="#ccd3df"/><path d="m291.73 82.981h-267.73v332.65h267.56l.53.009z" fill="#ffa543"/><path d="m296.61 393.121a3.076 3.076 0 0 1 -2.15.87l-2.45-245.3h.03a26.49 26.49 0 0 1 26.49-26.49h149.68a19.8 19.8 0 0 1 19.79 19.82v213.77a19.8 19.8 0 0 1 -19.79 19.82h-152.39a3.052 3.052 0 0 0 -2.14.87z" fill="#cae6ee"/><path d="m292.01 148.691 2.45 245.3a3.029 3.029 0 0 1 -2.13-.87l-17.07-16.64a3.052 3.052 0 0 0 -2.14-.87h-154.34a19.811 19.811 0 0 1 -19.8-19.82v-213.77a19.811 19.811 0 0 1 19.8-19.82h146.73a26.492 26.492 0 0 1 26.5 26.49z" fill="#cae6ee"/><path d="m291.56 47.371a31.355 31.355 0 0 0 -31.33-31.371h-204.9a31.355 31.355 0 0 0 -31.33 31.371v35.61h267.73z" fill="#ccd3df"/><path d="m157.78 439.071a16.745 16.745 0 1 1 -16.72 16.74 16.73 16.73 0 0 1 16.72-16.74z" fill="#e75163"/><path d="m54 464.63v-49h-30v49a31.355 31.355 0 0 0 31.33 31.37h30a31.355 31.355 0 0 1 -31.33-31.37z" fill="#e5e5e5"/><path d="m24 82.981h30v332.65h-30z" fill="#ffba76"/><path d="m128.98 355.791v-213.77a19.81 19.81 0 0 1 19.8-19.82h-30a19.81 19.81 0 0 0 -19.8 19.82v213.77a19.811 19.811 0 0 0 19.8 19.82h30a19.811 19.811 0 0 1 -19.8-19.82z" fill="#e9fbff"/><path d="m85.33 16h-30a31.355 31.355 0 0 0 -31.33 31.371v35.61h30v-35.61a31.355 31.355 0 0 1 31.33-31.371z" fill="#e5e5e5"/><g fill="#284268"><path d="m468.207 116.2h-149.679a32.326 32.326 0 0 0 -20.61 7.408l-.189-40.633-.167-35.6a37.394 37.394 0 0 0 -37.332-37.375h-204.898a37.394 37.394 0 0 0 -37.332 37.373v417.255a37.394 37.394 0 0 0 37.332 37.372h204.9a37.381 37.381 0 0 0 37.332-37.308l.706-65.53a9.154 9.154 0 0 0 2.53-1.741l16.217-15.81h151.19a25.834 25.834 0 0 0 25.793-25.811v-213.782a25.834 25.834 0 0 0 -25.793-25.818zm-188.757 255.986a9.016 9.016 0 0 0 -6.328-2.575h-154.344a13.82 13.82 0 0 1 -13.793-13.811v-213.782a13.82 13.82 0 0 1 13.793-13.818h146.737a20.528 20.528 0 0 1 20.492 20.551l2.32 232.088zm-224.118-350.186h204.9a25.387 25.387 0 0 1 25.332 25.4l.138 29.576h-157.262a6 6 0 0 0 0 12h157.316l.161 34.462a32.319 32.319 0 0 0 -20.4-7.237h-146.739a25.834 25.834 0 0 0 -25.793 25.816v213.783a25.834 25.834 0 0 0 25.793 25.816h153.149l14.378 14.018-.15 14h-256.155v-320.657h40.244a6 6 0 0 0 0-12h-40.244v-29.6a25.381 25.381 0 0 1 25.332-25.377zm204.9 468h-204.9a25.381 25.381 0 0 1 -25.332-25.372v-43h256.025l-.463 43a25.381 25.381 0 0 1 -25.332 25.372zm221.768-134.2a13.821 13.821 0 0 1 -13.793 13.816h-152.387a9.016 9.016 0 0 0 -6.326 2.573l-9.163 8.934-2.324-232.425h.029a20.515 20.515 0 0 1 20.492-20.498h149.679a13.821 13.821 0 0 1 13.793 13.818z"/><path d="m251.041 159.427h-72.947a6 6 0 0 0 0 12h72.947a6 6 0 0 0 0-12z"/><path d="m135.725 171.427h20.275a6 6 0 0 0 0-12h-20.275a6 6 0 0 0 0 12z"/><path d="m251.041 213.261h-21.984a6 6 0 0 0 0 12h21.984a6 6 0 0 0 0-12z"/><path d="m135.725 225.261h71.59a6 6 0 0 0 0-12h-71.59a6 6 0 0 0 0 12z"/><path d="m251.041 267.094h-66.947a6 6 0 0 0 0 12h66.947a6 6 0 0 0 0-12z"/><path d="m135.725 279.094h26.366a6 6 0 0 0 0-12h-26.366a6 6 0 1 0 0 12z"/><path d="m251.041 320.928h-24.815a6 6 0 0 0 0 12h24.815a6 6 0 1 0 0-12z"/><path d="m204.7 320.928h-68.975a6 6 0 0 0 0 12h68.975a6 6 0 1 0 0-12z"/><path d="m448.975 159.427h-81.55a6 6 0 0 0 0 12h81.55a6 6 0 0 0 0-12z"/><path d="m333.659 171.427h11.941a6 6 0 0 0 0-12h-11.941a6 6 0 0 0 0 12z"/><path d="m448.975 213.261h-35.24a6 6 0 0 0 0 12h35.24a6 6 0 0 0 0-12z"/><path d="m333.659 225.261h57.658a6 6 0 0 0 0-12h-57.658a6 6 0 0 0 0 12z"/><path d="m448.975 267.094h-76.42a6 6 0 0 0 0 12h76.42a6 6 0 0 0 0-12z"/><path d="m333.659 279.094h17.284a6 6 0 0 0 0-12h-17.284a6 6 0 0 0 0 12z"/><path d="m448.975 320.928h-20.549a6 6 0 0 0 0 12h20.549a6 6 0 0 0 0-12z"/><path d="m406.9 320.928h-73.241a6 6 0 0 0 0 12h73.241a6 6 0 0 0 0-12z"/><path d="m89.81 88.977h17.559a6 6 0 0 0 0-12h-17.559a6 6 0 0 0 0 12z"/><path d="m157.781 433.07a22.744 22.744 0 1 0 22.719 22.744 22.759 22.759 0 0 0 -22.719-22.744zm0 33.488a10.744 10.744 0 1 1 10.719-10.744 10.745 10.745 0 0 1 -10.719 10.744z"/></g></svg>