<svg id="Layer_1" height="512" viewBox="0 0 512 512" width="512" xmlns="http://www.w3.org/2000/svg" data-name="Layer 1"><path d="m469.76 432.751h-145.41a11.83 11.83 0 0 0 -11.86 11.809 11.828 11.828 0 0 1 -11.86 11.8h-94.87a11.83 11.83 0 0 1 -11.86-11.8 11.829 11.829 0 0 0 -11.86-11.809h-139.8a26.125 26.125 0 1 0 0 52.25h427.52a26.125 26.125 0 1 0 0-52.25z" fill="#b0b5ca"/><path d="m445.61 143.631h-374.86a23.666 23.666 0 0 0 -23.72 23.62v265.5h135.01a11.829 11.829 0 0 1 11.86 11.809 11.83 11.83 0 0 0 11.86 11.8h94.87a11.828 11.828 0 0 0 11.86-11.8 11.83 11.83 0 0 1 11.86-11.809h144.98v-265.5a23.666 23.666 0 0 0 -23.72-23.62z" fill="#e2e4ed"/><path d="m425.71 184.55h-335.07a4.257 4.257 0 0 0 -4.27 4.25v203.141a4.265 4.265 0 0 0 4.27 4.259h335.07a4.273 4.273 0 0 0 4.28-4.259v-203.141a4.266 4.266 0 0 0 -4.28-4.25z" fill="#efc597"/><path d="m247.14 48.921.3 161.46a26.965 26.965 0 0 1 -53.93 0l-.43-130.87a30.754 30.754 0 0 0 -30.79-30.59z" fill="#e2e4ed"/><path d="m298.48 235.95-78 1.321a26.94 26.94 0 0 1 -26.97-26.89l-.43-130.871a30.8 30.8 0 0 0 -61.59.121v194.109a21.956 21.956 0 0 0 21.99 21.92h123.22a21.945 21.945 0 0 0 21.98-22z" fill="#f4f8fc"/><path d="m396.58 48.921a21.955 21.955 0 0 0 -21.99-21.921h-105.46a21.949 21.949 0 0 0 -21.99 21.92l.3 161.46a26.925 26.925 0 0 1 -26.96 26.89l78-1.321 76.66-1.3a21.964 21.964 0 0 0 21.99-21.931z" fill="#f4f8fc"/><path d="m116.37 391.941v-203.141a4.257 4.257 0 0 1 4.27-4.25h-30a4.257 4.257 0 0 0 -4.27 4.25v203.141a4.265 4.265 0 0 0 4.27 4.259h30a4.265 4.265 0 0 1 -4.27-4.259z" fill="#ffd39f"/><path d="m161.49 273.74v-194.109a30.557 30.557 0 0 1 9.02-21.71 30.871 30.871 0 0 1 6.777-5.109 30.788 30.788 0 0 0 -45.8 26.819v194.109a21.956 21.956 0 0 0 21.99 21.92h30a21.956 21.956 0 0 1 -21.987-21.92z" fill="#e2e4ed"/><path d="m277.44 210.381-.3-161.46a21.949 21.949 0 0 1 21.99-21.921h-30a21.949 21.949 0 0 0 -21.99 21.92l.3 161.46a26.925 26.925 0 0 1 -26.96 26.89l35.684-.6a26.913 26.913 0 0 0 21.276-26.289z" fill="#e2e4ed"/><g fill="#284268"><path d="m303.459 75.173h68.447a6 6 0 0 0 0-12h-68.447a6 6 0 0 0 0 12z"/><path d="m272.29 75.173h9.81a6 6 0 0 0 0-12h-9.81a6 6 0 0 0 0 12z"/><path d="m189.781 266.416h69.619a6 6 0 0 0 0-12h-69.619a6 6 0 0 0 0 12z"/><path d="m157.646 266.416h9.943a6 6 0 0 0 0-12h-9.943a6 6 0 0 0 0 12z"/><path d="m371.906 187.218h-7.447a6 6 0 0 0 0 12h7.447a6 6 0 0 0 0-12z"/><path d="m272.29 199.218h69.81a6 6 0 0 0 0-12h-69.81a6 6 0 0 0 0 12z"/><path d="m371.906 147.332h-62.577a6 6 0 0 0 0 12h62.577a6 6 0 1 0 0-12z"/><path d="m272.29 159.332h15.03a6 6 0 0 0 0-12h-15.03a6 6 0 0 0 0 12z"/><path d="m371.906 107.446h-12.957a6 6 0 0 0 0 12h12.957a6 6 0 0 0 0-12z"/><path d="m272.29 119.446h64.525a6 6 0 0 0 0-12h-64.525a6 6 0 0 0 0 12z"/><path d="m322.1 330.113h65.457a6 6 0 0 0 0-12h-65.457a6 6 0 0 0 0 12z"/><path d="m291.518 330.113h9.132a6 6 0 0 0 0-12h-9.132a6 6 0 0 0 0 12z"/><path d="m147.744 330.113h122.037a6 6 0 0 0 0-12h-122.037a6 6 0 1 0 0 12z"/><path d="m387.556 351.019h-25.434a6 6 0 0 0 0 12h25.434a6 6 0 1 0 0-12z"/><path d="m192.662 357.019a6 6 0 0 0 6 6h141.615a6 6 0 1 0 0-12h-141.615a6 6 0 0 0 -6 6z"/><path d="m147.744 363.019h28.845a6 6 0 0 0 0-12h-28.845a6 6 0 0 0 0 12z"/><path d="m475.327 427.238v-259.99a29.7 29.7 0 0 0 -29.72-29.616h-42.732l-.3-88.708a27.987 27.987 0 0 0 -27.984-27.924h-105.463a28.015 28.015 0 0 0 -27.328 21.924h-79.515a36.788 36.788 0 0 0 -36.79 36.7v58.005h-54.747a29.7 29.7 0 0 0 -29.719 29.616v259.534a32.12 32.12 0 0 0 1.211 64.221h427.52a32.113 32.113 0 0 0 5.567-63.762zm-222.185-378.314a15.973 15.973 0 0 1 15.986-15.924h105.463a15.978 15.978 0 0 1 15.986 15.944l.55 163.78a15.973 15.973 0 0 1 -15.986 15.923l-128.867 2.183a32.7 32.7 0 0 0 7.167-20.463zm-11.7 161.455a20.951 20.951 0 0 1 -20.194 20.875l-.819.014a20.956 20.956 0 0 1 -20.918-20.909l-.434-130.871a36.51 36.51 0 0 0 -9.619-24.564h51.7zm-103.942-130.752a24.791 24.791 0 0 1 49.581-.1l.032 9.557c-.171-.015-.344-.026-.519-.026h-28.948a6 6 0 0 0 0 12h28.943c.188 0 .374-.011.558-.028l.144 43.191a6.026 6.026 0 0 0 -.7-.045h-28.945a6 6 0 0 0 0 12h28.943a6.04 6.04 0 0 0 .741-.05l.143 43.241a5.99 5.99 0 0 0 -.884-.072h-28.943a6 6 0 1 0 0 12h28.943a6.087 6.087 0 0 0 .942-.081 32.962 32.962 0 0 0 32.945 32.051c.363 0 .724-.006 1.085-.018l70.955-1.2.167 31.631a15.955 15.955 0 0 1 -15.983 15.983h-123.22a15.972 15.972 0 0 1 -15.98-15.923zm15.98 222.034h123.22a27.954 27.954 0 0 0 27.986-28.036l-.168-31.78 70.68-1.2a27.989 27.989 0 0 0 27.929-27.945l-.074-22.156h20.932v199.656h-331.615v-199.652h33.13v83.19a27.986 27.986 0 0 0 27.98 27.923zm-82.732-152.029h54.752v28.916h-34.857a10.274 10.274 0 0 0 -10.273 10.252v203.145a10.275 10.275 0 0 0 10.273 10.255h335.07a10.274 10.274 0 0 0 10.272-10.253v-203.147a10.274 10.274 0 0 0 -10.272-10.252h-22.7l-.1-28.916h42.692a17.688 17.688 0 0 1 17.72 17.616v259.5h-138.972a17.855 17.855 0 0 0 -17.86 17.808 5.841 5.841 0 0 1 -5.859 5.808h-94.878a5.841 5.841 0 0 1 -5.86-5.808 17.855 17.855 0 0 0 -17.86-17.808h-129.007v-259.5a17.688 17.688 0 0 1 17.719-17.616zm413.372 323.425a20.161 20.161 0 0 1 -14.36 5.943h-427.52a20.126 20.126 0 1 1 0-40.252h139.8a5.841 5.841 0 0 1 5.86 5.808 17.853 17.853 0 0 0 17.86 17.808h94.878a17.854 17.854 0 0 0 17.859-17.808 5.841 5.841 0 0 1 5.86-5.808h145.403a20.212 20.212 0 0 1 20.24 20.106 19.938 19.938 0 0 1 -5.88 14.203z"/></g></svg>