<svg id="Layer_1" height="512" viewBox="0 0 512 512" width="512" xmlns="http://www.w3.org/2000/svg" data-name="Layer 1"><path d="m496 55.781v67.21h-480v-67.21a21.8 21.8 0 0 1 21.82-21.781h436.36a21.8 21.8 0 0 1 21.82 21.781z" fill="#6d7486"/><path d="m16 122.99v273.96a21.8 21.8 0 0 0 21.82 21.781l434.67 3.44c12.05 0 23.51-13.19 23.51-25.221v-273.96z" fill="#e2e4ed"/><path d="m182.86 60.621a17.115 17.115 0 1 1 -17.15 17.12 17.131 17.131 0 0 1 17.15-17.12z" fill="#50dd5a"/><path d="m122.29 60.621a17.115 17.115 0 1 1 -17.15 17.12 17.131 17.131 0 0 1 17.15-17.12z" fill="#fe8700"/><path d="m60.57 60.621a17.115 17.115 0 1 1 -17.14 17.12 17.124 17.124 0 0 1 17.14-17.12z" fill="#f43b3b"/><path d="m485.64 438.28-49.11-60.129a3.146 3.146 0 0 0 -4.43-.46l-32.81 26.759a3.145 3.145 0 0 0 -.44 4.431l49.1 60.129a24.315 24.315 0 1 0 37.69-30.73z" fill="#6d7486"/><path d="m403.15 200.441c38.84 47.57 31.87 117.5-15.58 156.19s-117.4 31.5-156.25-16.07-31.87-117.5 15.58-156.19 117.4-31.5 156.25 16.07z" fill="#b7ff8d"/><rect fill="#ffdb00" height="59.51" rx="2" width="27.91" x="352.34" y="276.721"/><path d="m331.73 259.091v75.14a2.006 2.006 0 0 1 -2 2h-23.91a2.006 2.006 0 0 1 -2-2v-75.14a2 2 0 0 1 2-2h23.91a2 2 0 0 1 2 2z" fill="#ffdb00"/><path d="m283.2 242.951v91.28a2 2 0 0 1 -2 2h-23.9a2 2 0 0 1 -2-2v-91.28a2 2 0 0 1 2-2h23.9a2 2 0 0 1 2 2z" fill="#ffdb00"/><path d="m67.82 34h-30a21.8 21.8 0 0 0 -21.82 21.781v67.21h30v-67.21a21.8 21.8 0 0 1 21.82-21.781z" fill="#4a5160"/><path d="m46 396.95v-273.96h-30v273.96a21.8 21.8 0 0 0 21.82 21.781h30a21.8 21.8 0 0 1 -21.82-21.781z" fill="#b0b5ca"/><g fill="#284268"><path d="m207.952 172.463h-118.471a6 6 0 1 0 0 12h118.471a6 6 0 0 0 0-12z"/><path d="m50 184.463h15.459a6 6 0 0 0 0-12h-15.459a6 6 0 0 0 0 12z"/><path d="m50 308.125h127.952a6 6 0 0 0 0-12h-127.952a6 6 0 0 0 0 12z"/><path d="m50 350.711a6 6 0 0 0 0 12h149.952a6 6 0 0 0 0-12z"/><path d="m461.642 164.811h-44.975a6 6 0 0 0 0 12h44.975a6 6 0 0 0 0-12z"/><path d="m461.642 232.42h-15.975a6 6 0 0 0 0 12h15.975a6 6 0 0 0 0-12z"/><path d="m461.642 296.125h-12.975a6 6 0 1 0 0 12h12.975a6 6 0 1 0 0-12z"/><path d="m461.642 350.711h-22.975a6 6 0 1 0 0 12h22.975a6 6 0 1 0 0-12z"/><path d="m378.249 270.721h-23.907a8.009 8.009 0 0 0 -8 8v55.507a8.009 8.009 0 0 0 8 8h23.907a8.009 8.009 0 0 0 8-8v-55.507a8.009 8.009 0 0 0 -8-8zm-4 59.507h-15.907v-47.507h15.907z"/><path d="m329.727 251.088h-23.907a8.009 8.009 0 0 0 -8 8v75.14a8.009 8.009 0 0 0 8 8h23.907a8.009 8.009 0 0 0 8-8v-75.14a8.009 8.009 0 0 0 -8-8zm-4 79.14h-15.907v-67.14h15.907z"/><path d="m281.2 234.952h-23.9a8.009 8.009 0 0 0 -8 8v91.276a8.009 8.009 0 0 0 8 8h23.9a8.009 8.009 0 0 0 8-8v-91.276a8.009 8.009 0 0 0 -8-8zm-4 95.276h-15.9v-83.276h15.9z"/><path d="m275.227 215.92q.093 0 .186 0a6 6 0 0 0 5.994-5.817l.281-9.178 36.642 33.54.714.368a8 8 0 0 0 3.632.869h48.005a6 6 0 0 0 0-12h-46.337l-31.65-28.97 6.327-.231a6 6 0 0 0 -.438-11.993l-20.786.76a7.52 7.52 0 0 0 -7.772 6.686l-.612 19.783a6 6 0 0 0 5.814 6.183z"/><path d="m177.952 244.42a6 6 0 0 0 0-12h-88.471a6 6 0 1 0 0 12z"/><path d="m50 244.42h15.459a6 6 0 1 0 0-12h-15.459a6 6 0 1 0 0 12z"/><path d="m474.182 28h-436.364a27.831 27.831 0 0 0 -27.818 27.782v341.164a27.832 27.832 0 0 0 27.821 27.782l366.1-.145 39.382 48.226a30.4 30.4 0 0 0 42.709 4.38 30.333 30.333 0 0 0 4.272-42.7l-7.214-8.833c10.543-5.011 18.93-16.774 18.93-28.71v-341.164a27.831 27.831 0 0 0 -27.818-27.782zm-436.364 12h436.364a15.818 15.818 0 0 1 15.818 15.782v61.212h-468v-61.212a15.818 15.818 0 0 1 15.818-15.782zm447.241 415.546a18.136 18.136 0 0 1 -6.627 12.343 18.39 18.39 0 0 1 -25.83-2.671l-47.3-57.925 28.386-23.148 47.309 57.932a18.288 18.288 0 0 1 4.062 13.469zm-9.981-39.684-33.9-41.511a9.16 9.16 0 0 0 -12.867-1.31l-11.761 9.591-20.632-25.264a116.955 116.955 0 0 0 11.874-160.723c-40.875-50.054-114.754-57.645-164.692-16.928a116.937 116.937 0 0 0 -16.431 164.636 117.224 117.224 0 0 0 159.941 20.588l20.641 25.275-11.751 9.584a9.136 9.136 0 0 0 -1.361 12.786l-356.317.141a15.818 15.818 0 0 1 -15.822-15.781v-267.952h468v267.952c0 8.223-7.377 17.163-14.922 18.916zm-239.11-79.1a104.856 104.856 0 1 1 162.532-132.527 104.938 104.938 0 0 1 -14.719 147.746c-44.812 36.541-111.12 29.719-147.813-15.219z"/><path d="m60.571 100.851a23.115 23.115 0 1 0 -23.142-23.114 23.154 23.154 0 0 0 23.142 23.114zm0-34.229a11.115 11.115 0 1 1 -11.142 11.115 11.141 11.141 0 0 1 11.142-11.115z"/><path d="m122.286 100.851a23.115 23.115 0 1 0 -23.143-23.114 23.155 23.155 0 0 0 23.143 23.114zm0-34.229a11.115 11.115 0 1 1 -11.143 11.115 11.142 11.142 0 0 1 11.143-11.115z"/><path d="m182.857 100.851a23.115 23.115 0 1 0 -23.143-23.114 23.155 23.155 0 0 0 23.143 23.114zm0-34.229a11.115 11.115 0 1 1 -11.143 11.115 11.142 11.142 0 0 1 11.143-11.115z"/><path d="m273.143 82.6h196.571a6 6 0 0 0 0-12h-196.571a6 6 0 0 0 0 12z"/></g></svg>