<svg id="Layer_1" height="512" viewBox="0 0 512 512" width="512" xmlns="http://www.w3.org/2000/svg" data-name="Layer 1"><path d="m496 152.561v274.139a21.81 21.81 0 0 1 -21.82 21.8h-436.36a21.81 21.81 0 0 1 -21.82-21.8v-274.139z" fill="#f4f8fc"/><path d="m496 85.3v67.26h-480v-67.26a21.81 21.81 0 0 1 21.82-21.8h436.36a21.81 21.81 0 0 1 21.82 21.8z" fill="#b0b5ca"/><path d="m129.47 268.491v4.84a26.443 26.443 0 0 1 -26.44 26.44h-2.15a26.441 26.441 0 0 1 -26.43-26.44v-4.84z" fill="#e8a467"/><path d="m129.47 212.581h-55.02a26.432 26.432 0 0 1 26.43-26.43h2.15a26.435 26.435 0 0 1 26.44 26.43z" fill="#e8a467"/><path d="m74.45 212.581h55.02v55.91h-55.02z" fill="#ffc25f"/><path d="m182.86 90.141a17.125 17.125 0 1 1 -17.15 17.13 17.139 17.139 0 0 1 17.15-17.13z" fill="#50dd5a"/><path d="m121.71 90.141a17.125 17.125 0 1 1 -17.14 17.13 17.141 17.141 0 0 1 17.14-17.13z" fill="#fe8700"/><path d="m60.57 90.141a17.125 17.125 0 1 1 -17.14 17.13 17.133 17.133 0 0 1 17.14-17.13z" fill="#f43b3b"/><path d="m46 426.7v-274.14h-30v274.14a21.81 21.81 0 0 0 21.82 21.8h30a21.81 21.81 0 0 1 -21.82-21.8z" fill="#e2e4ed"/><path d="m67.82 63.5h-30a21.811 21.811 0 0 0 -21.82 21.8v67.26h30v-67.26a21.811 21.811 0 0 1 21.82-21.8z" fill="#ccd3df"/><g fill="#284268"><path d="m412.061 196.69h44.815a6 6 0 0 0 0-12h-44.815a6 6 0 0 0 0 12z"/><path d="m290.091 196.69h97.448a6 6 0 0 0 0-12h-97.448a6 6 0 0 0 0 12z"/><path d="m206.245 196.69h57.674a6 6 0 0 0 0-12h-57.674a6 6 0 0 0 0 12z"/><path d="m457.876 239.44h-73.337a6 6 0 0 0 0 12h73.337a6 6 0 0 0 0-12z"/><path d="m362.791 239.44h-112.645a6 6 0 0 0 0 12h112.645a6 6 0 0 0 0-12z"/><path d="m206.245 251.44h21.907a6 6 0 0 0 0-12h-21.907a6 6 0 0 0 0 12z"/><path d="m462.876 300.19a6 6 0 0 0 -6-6h-144.315a6 6 0 0 0 0 12h144.315a6 6 0 0 0 6-6z"/><path d="m265.821 294.19a6 6 0 0 0 0 12h25.9a6 6 0 0 0 0-12z"/><path d="m206.245 306.19h37.5a6 6 0 1 0 0-12h-37.5a6 6 0 0 0 0 12z"/><path d="m457.876 348.94h-54.509a6 6 0 0 0 0 12h54.509a6 6 0 0 0 0-12z"/><path d="m355.085 348.94a6 6 0 0 0 0 12h26.476a6 6 0 0 0 0-12z"/><path d="m206.245 360.94h126.576a6 6 0 0 0 0-12h-126.576a6 6 0 1 0 0 12z"/><path d="m457.876 403.69h-401.631a6 6 0 0 0 0 12h401.631a6 6 0 0 0 0-12z"/><path d="m474.182 57.5h-436.364a27.838 27.838 0 0 0 -27.818 27.8v341.4a27.839 27.839 0 0 0 27.818 27.8h436.364a27.839 27.839 0 0 0 27.818-27.8v-341.4a27.838 27.838 0 0 0 -27.818-27.8zm-436.364 12h436.364a15.826 15.826 0 0 1 15.818 15.8v61.26h-468v-61.26a15.826 15.826 0 0 1 15.818-15.8zm436.364 373h-436.364a15.826 15.826 0 0 1 -15.818-15.8v-268.143h468v268.143a15.826 15.826 0 0 1 -15.818 15.8z"/><path d="m60.571 130.394a23.127 23.127 0 1 0 -23.142-23.127 23.161 23.161 0 0 0 23.142 23.127zm0-34.253a11.127 11.127 0 1 1 -11.142 11.126 11.147 11.147 0 0 1 11.142-11.126z"/><path d="m121.714 130.394a23.127 23.127 0 1 0 -23.143-23.127 23.161 23.161 0 0 0 23.143 23.127zm0-34.253a11.127 11.127 0 1 1 -11.143 11.126 11.148 11.148 0 0 1 11.143-11.126z"/><path d="m182.857 130.394a23.127 23.127 0 1 0 -23.143-23.127 23.161 23.161 0 0 0 23.143 23.127zm0-34.253a11.127 11.127 0 1 1 -11.143 11.126 11.148 11.148 0 0 1 11.143-11.126z"/><path d="m273.143 112.126h196.571a6 6 0 0 0 0-12h-196.571a6 6 0 0 0 0 12z"/><path d="m100.884 305.769h2.148a32.471 32.471 0 0 0 32.434-32.433v-60.753a32.471 32.471 0 0 0 -32.434-32.434 6.043 6.043 0 0 0 -1.074.1 6.026 6.026 0 0 0 -1.074-.1 32.47 32.47 0 0 0 -32.433 32.434v60.753a32.47 32.47 0 0 0 32.433 32.433zm22.582-87.186v43.9h-43.015v-43.9zm-20.434 75.186h-2.148a20.442 20.442 0 0 1 -20.375-19.282h42.9a20.441 20.441 0 0 1 -20.377 19.282zm-2.148-101.62a6.026 6.026 0 0 0 1.074-.1 6.043 6.043 0 0 0 1.074.1 20.469 20.469 0 0 1 19.532 14.434h-41.211a20.468 20.468 0 0 1 19.531-14.434z"/><path d="m95.958 328.492v30.508h-16.264a6 6 0 0 0 0 12h44.133a6 6 0 0 0 0-12h-15.869v-30.632a54.389 54.389 0 0 0 29.478-13.18 6 6 0 0 0 -7.931-9.006 42.5 42.5 0 0 1 -70.573-32.068 6 6 0 0 0 -12 0 54.685 54.685 0 0 0 49.026 54.378z"/><path d="m140.071 304.2a6 6 0 0 0 8.226-2.082c.789-1.324 1.53-2.695 2.2-4.075a6 6 0 0 0 -10.791-5.249c-.523 1.076-1.1 2.146-1.718 3.18a6 6 0 0 0 2.083 8.226z"/><path d="m148.758 286.6a6.089 6.089 0 0 0 .8.054 6 6 0 0 0 5.939-5.2 55.365 55.365 0 0 0 .488-7.336 6 6 0 0 0 -12 0 43.414 43.414 0 0 1 -.381 5.743 6 6 0 0 0 5.154 6.739z"/></g></svg>