<svg id="Layer_1" height="512" viewBox="0 0 512 512" width="512" xmlns="http://www.w3.org/2000/svg" data-name="Layer 1"><path d="m405.37 11h-298.74a32.006 32.006 0 0 0 -31.98 32.03v425.94a32.007 32.007 0 0 0 31.98 32.03h298.74a32.007 32.007 0 0 0 31.98-32.031v-425.939a32.006 32.006 0 0 0 -31.98-32.03z" fill="#b0b5ca"/><path d="m389.38 73.841v344.92a10 10 0 0 1 -10 10h-246.76a10 10 0 0 1 -10-10v-344.92a10 10 0 0 1 10-10h246.76a10 10 0 0 1 10 10z" fill="#ffc25f"/><circle cx="190.19" cy="126.951" fill="#fb6771" r="24.5"/><path d="m231.02 208.611h-81.67a40.835 40.835 0 0 1 81.67 0z" fill="#fb6771"/><circle cx="327.93" cy="308.491" fill="#5fa8ed" r="24.5"/><path d="m368.76 390.161h-81.66a40.83 40.83 0 1 1 81.66 0z" fill="#5fa8ed"/><path d="m152.62 418.76v-344.919a10 10 0 0 1 10-10h-30a10 10 0 0 0 -10 10v344.919a10 10 0 0 0 10 10h30a10 10 0 0 1 -10-10z" fill="#e8a467"/><g fill="#284268"><path d="m405.37 5h-298.74a38.044 38.044 0 0 0 -37.976 38.026v425.948a38.044 38.044 0 0 0 37.976 38.026h298.74a38.044 38.044 0 0 0 37.976-38.026v-425.948a38.044 38.044 0 0 0 -37.976-38.026zm25.976 463.974a26.03 26.03 0 0 1 -25.976 26.026h-298.74a26.03 26.03 0 0 1 -25.976-26.026v-425.948a26.03 26.03 0 0 1 25.976-26.026h298.74a26.03 26.03 0 0 1 25.976 26.026z"/><path d="m273.147 459.088h-34.293a6 6 0 1 0 0 12h34.293a6 6 0 0 0 0-12z"/><path d="m379.382 57.843h-246.764a16.019 16.019 0 0 0 -16 16v344.918a16.018 16.018 0 0 0 16 16h246.764a16.018 16.018 0 0 0 16-16v-344.918a16.019 16.019 0 0 0 -16-16zm4 360.918a4 4 0 0 1 -4 4h-246.764a4 4 0 0 1 -4-4v-344.918a4 4 0 0 1 4-4h246.764a4 4 0 0 1 4 4z"/><path d="m257.712 299.954h-61.823a6 6 0 0 0 0 12h61.823a6 6 0 0 0 0-12z"/><path d="m143.235 311.954h29.965a6 6 0 0 0 0-12h-29.965a6 6 0 0 0 0 12z"/><path d="m257.712 342.056h-26.693a6 6 0 0 0 0 12h26.693a6 6 0 0 0 0-12z"/><path d="m143.235 354.056h65.416a6 6 0 0 0 0-12h-65.416a6 6 0 0 0 0 12z"/><path d="m257.712 384.158h-79.462a6 6 0 0 0 0 12h79.462a6 6 0 0 0 0-12z"/><path d="m156 384.158h-12.765a6 6 0 0 0 0 12h12.765a6 6 0 0 0 0-12z"/><path d="m297.432 308.491a30.5 30.5 0 1 0 30.5-30.5 30.534 30.534 0 0 0 -30.5 30.5zm49 0a18.5 18.5 0 1 1 -18.5-18.5 18.521 18.521 0 0 1 18.5 18.5z"/><path d="m327.932 343.325a46.886 46.886 0 0 0 -46.832 46.833 6 6 0 0 0 6 6h81.667a6 6 0 0 0 6-6 46.886 46.886 0 0 0 -46.835-46.833zm-34.317 40.833a34.837 34.837 0 0 1 68.632 0z"/><path d="m301 130.409h61.648a6 6 0 1 0 0-12h-61.648a6 6 0 0 0 0 12z"/><path d="m253.275 130.409h25.625a6 6 0 1 0 0-12h-25.625a6 6 0 0 0 0 12z"/><path d="m362.647 160.511h-36.989a6 6 0 0 0 0 12h36.989a6 6 0 0 0 0-12z"/><path d="m253.275 172.511h50.157a6 6 0 0 0 0-12h-50.157a6 6 0 0 0 0 12z"/><path d="m368.647 208.613a6 6 0 0 0 -6-6h-73.162a6 6 0 0 0 0 12h73.162a6 6 0 0 0 6-6z"/><path d="m266.682 202.613h-13.407a6 6 0 0 0 0 12h13.407a6 6 0 0 0 0-12z"/><path d="m190.186 157.446a30.5 30.5 0 1 0 -30.5-30.5 30.535 30.535 0 0 0 30.5 30.5zm0-49a18.5 18.5 0 1 1 -18.5 18.5 18.521 18.521 0 0 1 18.5-18.5z"/><path d="m149.353 214.613h81.666a6 6 0 0 0 6-6 46.833 46.833 0 1 0 -93.666 0 6 6 0 0 0 6 6zm40.833-40.834a34.891 34.891 0 0 1 34.314 28.834h-68.63a34.891 34.891 0 0 1 34.316-28.834z"/></g></svg>