<svg id="Layer_1" height="512" viewBox="0 0 512 512" width="512" xmlns="http://www.w3.org/2000/svg" data-name="Layer 1"><path d="m184.06 408.22v78.48a1.8 1.8 0 0 0 3.04 1.3l14.88-14.14a1.8 1.8 0 0 1 2.48 0l14.88 14.14a1.8 1.8 0 0 0 3.04-1.3v-78.48z" fill="#d8ff33"/><path d="m184.06 408.221v41.62l-147.81-.31a20.236 20.236 0 0 1 -20.25-20.22v-231.04a20.238 20.238 0 0 1 20.25-20.23h20.37v209.95a20.238 20.238 0 0 0 20.25 20.23z" fill="#6d7486"/><path d="m256.63 426.981a3.116 3.116 0 0 0 2.2-.88l17.47-16.99a3.146 3.146 0 0 1 2.19-.89h176.18a2 2 0 0 0 2-2v-228.18h19.08a20.238 20.238 0 0 1 20.25 20.23v231.04a20.236 20.236 0 0 1 -20.25 20.22h-253.37v-41.31h12.42a3.146 3.146 0 0 1 2.19.89l17.47 16.99a3.072 3.072 0 0 0 2.17.88z" fill="#6d7486"/><path d="m256.63 426.981-1.82-181.42h16.49l2.33-24.12a87.272 87.272 0 0 0 29.68-12.5l18.63 15.4 22.99-22.96-15.43-18.6a89.357 89.357 0 0 0 12.52-29.65l23.86-2.32v-2.4l70.54 1.15a20.236 20.236 0 0 1 20.25 20.22v236.44a2 2 0 0 1 -2 2h-176.18a3.146 3.146 0 0 0 -2.19.89l-17.47 16.989a3.116 3.116 0 0 1 -2.2.881z" fill="#e2e4ed"/><path d="m254.81 245.56h-16.11l-2.33-24.119a89.681 89.681 0 0 1 -29.68-12.5l-18.63 15.4-22.99-22.96 15.42-18.6a86.861 86.861 0 0 1 -12.51-29.649l-24.16-2.321v-1.25h-66.95a20.23 20.23 0 0 0 -20.25 20.22v218.209a20.238 20.238 0 0 0 20.25 20.23h157.93a3.147 3.147 0 0 1 2.19.891l17.47 16.989a3.069 3.069 0 0 0 2.17.881z" fill="#e2e4ed"/><path d="m365.88 150.811-23.86 2.32a89.357 89.357 0 0 1 -12.52 29.65l15.43 18.6-22.99 22.96-18.63-15.4a87.272 87.272 0 0 1 -29.68 12.5l-2.33 24.12h-32.6l-2.33-24.12a89.681 89.681 0 0 1 -29.68-12.5l-18.63 15.4-22.99-22.96 15.42-18.6a86.857 86.857 0 0 1 -12.51-29.65l-24.16-2.32v-32.56l24.16-2.32a89.338 89.338 0 0 1 12.51-29.65l-15.42-18.6 22.99-22.96 18.63 15.4a87.188 87.188 0 0 1 29.68-12.5l2.33-24.121h32.6l2.33 24.12a89.769 89.769 0 0 1 29.68 12.5l18.63-15.4 22.7 22.96-15.43 18.6a86.875 86.875 0 0 1 12.52 29.65l24.15 2.32v32.56z" fill="#fbb040"/><ellipse cx="255" cy="134.531" fill="#fff655" rx="57.83" ry="57.75"/><path d="m86.62 384.481v-218.261a20.221 20.221 0 0 1 17.339-20l-27.089-.23a20.238 20.238 0 0 0 -20.25 20.23v218.261a20.238 20.238 0 0 0 20.25 20.23h30a20.238 20.238 0 0 1 -20.25-20.23z" fill="#b0b5ca"/><path d="m227.17 134.53a57.774 57.774 0 0 1 42.83-55.776 57.749 57.749 0 1 0 0 111.554 57.775 57.775 0 0 1 -42.83-55.778z" fill="#eadf53"/><g fill="#284268"><path d="m475.747 172.039h-13.076v-2.255a26.249 26.249 0 0 0 -26.156-26.227l-64.632-1.052v-24.251a6 6 0 0 0 -5.425-5.972l-19.906-1.916a93.539 93.539 0 0 0 -9.944-23.6l12.648-15.254a6 6 0 0 0 -.352-8.047l-22.704-22.965a6 6 0 0 0 -8.091-.406l-15.309 12.669a95.63 95.63 0 0 0 -23.612-9.963l-1.919-19.876a6 6 0 0 0 -5.969-5.424h-32.6a6 6 0 0 0 -5.972 5.424l-1.917 19.876a93.8 93.8 0 0 0 -23.644 9.936l-15.282-12.642a6 6 0 0 0 -8.063.378l-22.992 22.962a6 6 0 0 0 -.379 8.075l12.678 15.291a95.441 95.441 0 0 0 -9.971 23.566l-19.908 1.917a6 6 0 0 0 -5.426 5.972v25.3h-60.955a26.269 26.269 0 0 0 -26.253 26.227v2.255h-14.363a26.269 26.269 0 0 0 -26.253 26.229v231.041a26.268 26.268 0 0 0 26.241 26.227l141.822.294v30.872a7.8 7.8 0 0 0 13.168 5.649l11.989-11.392 11.988 11.392a7.8 7.8 0 0 0 13.168-5.649v-31.166h247.371a26.27 26.27 0 0 0 26.253-26.227v-231.041a26.269 26.269 0 0 0 -26.253-26.227zm-25.076-2.255v232.437h-172.183a9.089 9.089 0 0 0 -6.37 2.587l-9.615 9.351-1.629-162.6h10.426a6 6 0 0 0 5.972-5.424l1.918-19.872a93.825 93.825 0 0 0 23.644-9.937l15.282 12.638a6 6 0 0 0 8.064-.377l22.991-22.962a6 6 0 0 0 .379-8.076l-12.68-15.286a95.44 95.44 0 0 0 9.972-23.571l19.623-1.913a5.966 5.966 0 0 0 4.129-2.293l65.824 1.071a14.256 14.256 0 0 1 14.253 14.227zm-300.847-46.084 18.731-1.8a6 6 0 0 0 5.289-4.7 83.587 83.587 0 0 1 11.69-27.661 6 6 0 0 0 -.421-7.086l-11.933-14.393 15.261-15.242 14.423 11.928a6 6 0 0 0 7.149.371 81.268 81.268 0 0 1 27.626-11.628 6 6 0 0 0 4.706-5.288l1.805-18.7h21.7l1.805 18.7a6 6 0 0 0 4.706 5.288 83.818 83.818 0 0 1 27.7 11.678 6 6 0 0 0 7.074-.421l14.395-11.9 15.02 15.192-11.956 14.414a6 6 0 0 0 -.372 7.161 81.024 81.024 0 0 1 11.641 27.587 6 6 0 0 0 5.289 4.7l18.731 1.8v21.66l-18.447 1.8a6 6 0 0 0 -5.282 4.7 83.6 83.6 0 0 1 -11.69 27.661 6 6 0 0 0 .421 7.085l11.934 14.394-15.262 15.242-14.422-11.928a6 6 0 0 0 -7.149-.371 81.273 81.273 0 0 1 -27.627 11.628 6 6 0 0 0 -4.706 5.288l-1.805 18.7h-21.7l-1.805-18.7a6 6 0 0 0 -4.706-5.288 83.823 83.823 0 0 1 -27.7-11.677 6 6 0 0 0 -7.074.42l-14.423 11.928-15.26-15.242 11.933-14.392a6 6 0 0 0 .372-7.161 81.032 81.032 0 0 1 -11.641-27.586 6 6 0 0 0 -5.289-4.7l-18.731-1.8zm-87.208 46.08a14.256 14.256 0 0 1 14.253-14.227h63.292a5.974 5.974 0 0 0 3.089 1.223l19.905 1.916a93.582 93.582 0 0 0 9.944 23.6l-12.648 15.252a6 6 0 0 0 .379 8.076l22.992 22.962a6 6 0 0 0 8.063.378l15.315-12.66a95.636 95.636 0 0 0 23.608 9.963l1.918 19.876a6 6 0 0 0 5.972 5.424h10.172l1.627 162.32-9.331-9.074a9.089 9.089 0 0 0 -6.37-2.587h-157.927a14.256 14.256 0 0 1 -14.253-14.227zm-26.363 273.754a14.256 14.256 0 0 1 -14.253-14.227v-231.041a14.257 14.257 0 0 1 14.253-14.227h14.363v203.955a26.269 26.269 0 0 0 26.253 26.227h101.194v29.607zm172.338 25.974a7.8 7.8 0 0 0 -10.743 0l-7.785 7.4v-62.687h26.313v62.686zm281.409-40.201a14.256 14.256 0 0 1 -14.253 14.227h-247.371v-29.313h5.261l16.635 16.179a9.091 9.091 0 0 0 12.743 0l16.635-16.179h175.018a8.01 8.01 0 0 0 8-8v-222.182h13.076a14.257 14.257 0 0 1 14.256 14.227z"/><path d="m182.909 266.445h27.046a6 6 0 0 0 0-12h-27.046a6 6 0 0 0 0 12z"/><path d="m95.863 266.445h66.037a6 6 0 0 0 0-12h-66.037a6 6 0 0 0 0 12z"/><path d="m209.955 305.012h-77.131a6 6 0 0 0 0 12h77.131a6 6 0 0 0 0-12z"/><path d="m95.863 317.012h15.337a6 6 0 0 0 0-12h-15.337a6 6 0 0 0 0 12z"/><path d="m209.955 355.58h-32.265a6 6 0 0 0 0 12h32.265a6 6 0 0 0 0-12z"/><path d="m95.863 367.58h60.387a6 6 0 0 0 0-12h-60.387a6 6 0 0 0 0 12z"/><path d="m145.6 215.877h3.6a6 6 0 0 0 0-12h-3.6a6 6 0 1 0 0 12z"/><path d="m95.863 215.877h28.012a6 6 0 0 0 0-12h-28.012a6 6 0 0 0 0 12z"/><path d="m390.572 215.877h19.89a6 6 0 0 0 0-12h-19.89a6 6 0 0 0 0 12z"/><path d="m368.819 203.877h-11.691a6 6 0 0 0 0 12h11.691a6 6 0 0 0 0-12z"/><path d="m395.974 254.445a6 6 0 0 0 0 12h16.513a6 6 0 0 0 0-12z"/><path d="m298.394 254.445a6 6 0 0 0 0 12h75.942a6 6 0 0 0 0-12z"/><path d="m412.487 305.012h-67.046a6 6 0 0 0 0 12h67.046a6 6 0 0 0 0-12z"/><path d="m298.394 317.012h25.942a6 6 0 0 0 0-12h-25.942a6 6 0 0 0 0 12z"/><path d="m412.487 355.58h-53.3a6 6 0 0 0 0 12h53.3a6 6 0 0 0 0-12z"/><path d="m337.539 355.58h-39.145a6 6 0 0 0 0 12h39.145a6 6 0 0 0 0-12z"/><path d="m255 198.284a63.753 63.753 0 1 0 -63.827-63.753 63.862 63.862 0 0 0 63.827 63.753zm0-115.506a51.753 51.753 0 1 1 -51.827 51.753 51.849 51.849 0 0 1 51.827-51.753z"/></g></svg>