<svg id="Layer_1" height="512" viewBox="0 0 512 512" width="512" xmlns="http://www.w3.org/2000/svg" data-name="Layer 1"><path d="m475.31 306.411a3.85 3.85 0 0 1 -3.66 5.04h-215.84v-.01c1.04-.73 67.7-47.4 117.96-58.41a376.78 376.78 0 0 1 81.49-8.4z" fill="#ccd3df"/><path d="m474.22 176.311a3.858 3.858 0 0 1 -2.6 5.7c-4.77.92-12.56 2.61-22.6 5.47a368.737 368.737 0 0 0 -72.18 29.39c-73.09 39.08-120.3 93.72-121.03 94.57v.01h-.01v-184.8a3.89 3.89 0 0 1 1.3-2.89l120.73-106.8a3.852 3.852 0 0 1 5.89.98z" fill="#e2e4ed"/><path d="m455.26 244.631a376.78 376.78 0 0 0 -81.49 8.4c-50.26 11.01-116.92 57.68-117.96 58.41.73-.85 47.94-55.49 121.03-94.57a368.737 368.737 0 0 1 72.18-29.39l25.05 52.06a3.853 3.853 0 0 1 -3.67 5.52c-3.68-.2-8.83-.4-15.14-.43z" fill="#b0b5ca"/><path d="m384.25 424.651a23.133 23.133 0 0 1 22.95 23.14v25.409a22.8 22.8 0 0 1 -22.8 22.8h-.71a22.794 22.794 0 0 1 -22.79-22.8v-25.41a23.144 23.144 0 0 1 23.15-23.15 1.34 1.34 0 0 1 .2.011z" fill="#7ce5e9"/><path d="m255.8 128.761v182.69h-215.45a3.849 3.849 0 0 1 -3.57-5.28l71.69-178.84a3.856 3.856 0 0 1 3.57-2.42h139.92a3.85 3.85 0 0 1 3.84 3.85z" fill="#f4f8fc"/><path d="m66.78 306.171 71.69-178.84a3.857 3.857 0 0 1 3.57-2.421h-30a3.857 3.857 0 0 0 -3.57 2.421l-71.69 178.84a3.849 3.849 0 0 0 3.57 5.279h30a3.849 3.849 0 0 1 -3.57-5.279z" fill="#ccd3df"/><g fill="#284268"><path d="m230.723 161.89h.289a6 6 0 0 0 0-12h-.289a6 6 0 0 0 0 12z"/><path d="m167.677 161.89h41.184a6 6 0 0 0 0-12h-41.184a6 6 0 0 0 0 12z"/><path d="m121.865 161.89h24.286a6 6 0 0 0 0-12h-24.286a6 6 0 0 0 0 12z"/><path d="m237.012 197.276a6 6 0 0 0 -6-6h-61.955a6 6 0 1 0 0 12h61.955a6 6 0 0 0 6-6z"/><path d="m147.785 203.276a6 6 0 1 0 0-12h-21.21a6 6 0 1 0 0 12z"/><path d="m104.558 203.276h.257a6 6 0 0 0 0-12h-.257a6 6 0 1 0 0 12z"/><path d="m231.438 232.661h-.426a6 6 0 0 0 0 12h.426a6 6 0 0 0 0-12z"/><path d="m137.7 232.661a6 6 0 0 0 0 12h71.558a6 6 0 1 0 0-12z"/><path d="m115.677 232.661h-25.542a6 6 0 1 0 0 12h25.542a6 6 0 1 0 0-12z"/><path d="m231.012 274.047h-102.574a6 6 0 1 0 0 12h102.574a6 6 0 0 0 0-12z"/><path d="m107.941 274.047h-.367a6 6 0 0 0 0 12h.367a6 6 0 1 0 0-12z"/><path d="m86.8 274.047h-15.894a6 6 0 0 0 0 12h15.894a6 6 0 1 0 0-12z"/><path d="m347.735 95.917a5.982 5.982 0 0 0 3.865-1.417l29.975-25.287a6 6 0 1 0 -7.738-9.172l-29.974 25.29a6 6 0 0 0 3.872 10.586z"/><path d="m320.8 118.642a5.982 5.982 0 0 0 3.866-1.414l12.089-10.2a6 6 0 1 0 -7.738-9.172l-12.089 10.2a6 6 0 0 0 3.872 10.587z"/><path d="m280.642 152.515a5.976 5.976 0 0 0 3.866-1.414l24.329-20.524a6 6 0 0 0 -7.738-9.172l-24.329 20.524a6 6 0 0 0 3.872 10.586z"/><path d="m335.141 153.958a6 6 0 0 0 8.4 1.214c19.394-14.494 39.746-28.178 60.49-40.673a6 6 0 0 0 -6.192-10.28c-21.084 12.7-41.769 26.61-61.482 41.341a6 6 0 0 0 -1.216 8.398z"/><path d="m328.056 167.068a6 6 0 0 0 -7.437-9.418c-4.147 3.275-8.319 6.644-12.4 10.011a6 6 0 1 0 7.637 9.256c4.015-3.317 8.12-6.627 12.2-9.849z"/><path d="m288.668 200.5c3.132-2.854 6.331-5.718 9.509-8.515a6 6 0 1 0 -7.927-9.009c-3.23 2.842-6.482 5.754-9.664 8.655a6 6 0 0 0 8.082 8.869z"/><path d="m387.328 170.523a6 6 0 0 0 8.272 1.877c9.143-5.765 18.523-11.43 27.88-16.836a6 6 0 1 0 -6-10.39c-9.491 5.483-19 11.228-28.278 17.075a6 6 0 0 0 -1.874 8.274z"/><path d="m373.088 172.664c-8.289 5.49-16.594 11.2-24.685 16.981-3.3 2.358-6.635 4.774-9.9 7.18-5.127 3.772-10.283 7.657-15.325 11.545q-3.31 2.551-6.545 5.1a6 6 0 1 0 7.42 9.431q3.188-2.508 6.452-5.025c4.972-3.834 10.055-7.663 15.11-11.383 3.224-2.372 6.51-4.754 9.765-7.079 7.978-5.7 16.166-11.329 24.339-16.743a6 6 0 1 0 -6.627-10z"/><path d="m300.165 226.752c-5.1 4.221-10.223 8.561-15.224 12.9a6 6 0 1 0 7.864 9.064c4.931-4.279 9.981-8.559 15.01-12.72a6 6 0 1 0 -7.65-9.245z"/><path d="m481.016 304.559-17.451-53.786c2.522.078 4.707.176 6.512.275a9.849 9.849 0 0 0 9.4-14.111l-21.923-45.57c6.441-1.671 11.612-2.779 15.2-3.469a9.85 9.85 0 0 0 6.679-14.562l-90.5-158.374a9.842 9.842 0 0 0 -15.068-2.491l-120.465 106.56-141.354-.118a9.8 9.8 0 0 0 -9.138 6.184l-71.697 178.837a9.851 9.851 0 0 0 9.139 13.519h209.1l-3.738 65.733-.01.341a25.273 25.273 0 0 0 25.23 25.258h94.09a13.257 13.257 0 0 1 12.937 10.5 29.2 29.2 0 0 0 -23.059 28.506v25.414a28.827 28.827 0 0 0 28.8 28.8h.713a28.827 28.827 0 0 0 28.795-28.8v-25.414a29.2 29.2 0 0 0 -23.1-28.515 25.273 25.273 0 0 0 -25.075-22.491h-94.09a13.259 13.259 0 0 1 -13.229-13.1l3.766-66.228h210.18a9.851 9.851 0 0 0 9.365-12.894zm-231.213.894h-206.272l69.969-174.54h136.3zm140.45 126.367a17.165 17.165 0 0 1 10.947 15.971v6.529h-10.947zm10.945 34.5v6.885a16.814 16.814 0 0 1 -16.798 16.795h-.713a16.814 16.814 0 0 1 -16.8-16.8v-6.88zm-22.945-12h-11.353v-6.529a17.165 17.165 0 0 1 11.358-16.123zm88.847-215.427a383.994 383.994 0 0 0 -94.617 8.277c-23.583 5.167-50.305 17.736-72.56 29.992 20.286-17.342 47.528-37.778 79.744-55a364.768 364.768 0 0 1 66.154-27.5zm-205.3 57.291v-168.568l118.018-104.4 87.714 153.484c-15.985 3.314-51.751 12.541-93.524 34.874-54.408 29.091-94.236 66.194-112.208 84.61zm14.009 9.269c22.9-14.487 65.243-39.112 99.239-46.562a371.1 371.1 0 0 1 75.85-8.265l17.789 54.827z"/></g></svg>