<svg id="Layer_1" height="512" viewBox="0 0 512 512" width="512" xmlns="http://www.w3.org/2000/svg" data-name="Layer 1"><path d="m437.71 167.28h-359.24a22.731 22.731 0 0 0 -22.73 22.741v255.659h129.38a11.361 11.361 0 0 1 11.36 11.37 11.369 11.369 0 0 0 11.37 11.371h90.92a11.37 11.37 0 0 0 11.37-11.371 11.369 11.369 0 0 1 11.36-11.37h138.94v-255.659a22.737 22.737 0 0 0 -22.73-22.741z" fill="#ccd3df"/><path d="m418.64 206.68h-321.11a4.089 4.089 0 0 0 -4.09 4.091v195.619a4.1 4.1 0 0 0 4.09 4.1h321.11a4.1 4.1 0 0 0 4.1-4.1v-195.619a4.1 4.1 0 0 0 -4.1-4.091z" fill="#f4f8fc"/><path d="m123.44 406.39v-195.619a4.089 4.089 0 0 1 4.09-4.091h-30a4.089 4.089 0 0 0 -4.09 4.091v195.619a4.1 4.1 0 0 0 4.09 4.1h30a4.1 4.1 0 0 1 -4.09-4.1z" fill="#e2e4ed"/><path d="m261.5 16.001-139.84 60.83v21.619h279.67v-21.619z" fill="#49bdff"/><path d="m261.5 43.071a16.955 16.955 0 1 1 -16.95 16.96 16.954 16.954 0 0 1 16.95-16.96z" fill="#ff7178"/><path d="m460.85 445.68h-139.35a11.369 11.369 0 0 0 -11.36 11.37 11.37 11.37 0 0 1 -11.37 11.371h-90.92a11.369 11.369 0 0 1 -11.37-11.371 11.361 11.361 0 0 0 -11.36-11.37h-133.97a25.161 25.161 0 0 0 0 50.321h409.7a25.161 25.161 0 0 0 0-50.321z" fill="#6d7486"/><path d="m401.33 261.251v27.13h-283.91v-27.13h16.95 251.81z" fill="#43a2ff"/><path d="m134.37 234.111h251.81v27.14h-251.81z" fill="#49bdff"/><path d="m344.65 98.45h25.42v135.66h-25.42z" fill="#ff7178"/><path d="m280.74 98.451h25.42v135.66h-25.42z" fill="#ff7178"/><path d="m216.83 98.451h25.43v135.66h-25.43z" fill="#ff7178"/><path d="m152.92 98.45h25.43v135.66h-25.43z" fill="#ff7178"/><g fill="#284268"><path d="m466.438 440.2v-250.178a28.77 28.77 0 0 0 -28.731-28.742h-61.636v-56.825h25.264a6 6 0 0 0 6-6v-21.62a6 6 0 0 0 -3.606-5.5l-139.838-60.835a6 6 0 0 0 -4.787 0l-139.837 60.833a6 6 0 0 0 -3.606 5.5v21.62a6 6 0 0 0 6 6h25.263v56.827h-68.457a28.77 28.77 0 0 0 -28.731 28.742v249.7a31.156 31.156 0 0 0 1.411 62.278h409.706a31.155 31.155 0 0 0 5.585-61.8zm-255.606-335.745v123.659h-26.483v-123.659zm101.332 123.659v-123.659h26.482v123.659zm-12 0h-13.425v-123.659h13.425zm-25.425 0h-26.483v-123.659h26.483zm-38.483 0h-13.424v-123.659h13.424zm143.926 12v15.132h-239.809v-15.132zm15.153 27.132v15.132h-271.912v-15.132zm-248.411-39.132h-12.551a6 6 0 0 0 -6 6v21.132h-10.95a6 6 0 0 0 -6 6v27.132a6 6 0 0 0 6 6h283.912a6 6 0 0 0 6-6v-27.132a6 6 0 0 0 -6-6h-9.153v-21.132a6 6 0 0 0 -6-6h-10.111v-15.434h40.665v191.808h-317.298v-191.808h47.486zm217.147 0h-13.425v-123.659h13.425zm-236.41-147.347 133.839-58.224 133.835 58.224v11.688h-267.674zm44.688 23.688v123.659h-13.425v-123.659zm-93.882 68.825h68.457v27.4h-49.392a10.106 10.106 0 0 0 -10.094 10.095v195.618a10.105 10.105 0 0 0 10.094 10.1h321.11a10.105 10.105 0 0 0 10.094-10.1v-195.618a10.106 10.106 0 0 0 -10.094-10.095h-42.571v-27.4h61.636a16.756 16.756 0 0 1 16.731 16.742v249.662h-132.933a17.387 17.387 0 0 0 -17.366 17.37 5.374 5.374 0 0 1 -5.366 5.371h-90.924a5.375 5.375 0 0 1 -5.366-5.371 17.387 17.387 0 0 0 -17.365-17.37h-123.382v-249.662a16.756 16.756 0 0 1 16.731-16.742zm395.93 311.1a19.013 19.013 0 0 1 -13.544 5.62h-409.706a19.158 19.158 0 0 1 0-38.316h133.971a5.373 5.373 0 0 1 5.365 5.37 17.388 17.388 0 0 0 17.366 17.371h90.924a17.388 17.388 0 0 0 17.366-17.371 5.374 5.374 0 0 1 5.366-5.37h139.348a19.16 19.16 0 0 1 13.544 32.7z"/><path d="m261.5 37.068a22.958 22.958 0 1 0 22.95 22.958 22.98 22.98 0 0 0 -22.95-22.958zm0 33.915a10.958 10.958 0 1 1 10.95-10.957 10.966 10.966 0 0 1 -10.95 10.957z"/><path d="m320.66 332.166h57.713a6 6 0 0 0 0-12h-57.713a6 6 0 0 0 0 12z"/><path d="m186.832 332.166h112.346a6 6 0 0 0 0-12h-112.346a6 6 0 0 0 0 12z"/><path d="m148.667 332.166h16.289a6 6 0 0 0 0-12h-16.289a6 6 0 1 0 0 12z"/><path d="m378.373 364.546h-95a6 6 0 0 0 0 12h95a6 6 0 0 0 0-12z"/><path d="m261.544 364.546h-36.38a6 6 0 0 0 0 12h36.38a6 6 0 0 0 0-12z"/><path d="m148.667 376.546h54.333a6 6 0 0 0 0-12h-54.333a6 6 0 1 0 0 12z"/></g></svg>