<svg id="Layer_1" height="512" viewBox="0 0 512 512" width="512" xmlns="http://www.w3.org/2000/svg" data-name="Layer 1"><path d="m207.77 423.561h96.46v72.44h-96.46z" fill="#4a5160"/><path d="m301.17 58.781v28.66a42.785 42.785 0 1 1 -85.57 0v-28.66a42.785 42.785 0 0 1 85.57 0z" fill="#ffd39f"/><path d="m73.5 375.211v23.069a25.248 25.248 0 0 0 25.21 25.28h314.58a25.248 25.248 0 0 0 25.21-25.28v-23.069z" fill="#6d7486"/><path d="m413.29 167.621h-314.58a25.246 25.246 0 0 0 -25.21 25.269v182.321h365v-182.321a25.246 25.246 0 0 0 -25.21-25.269z" fill="#e2e4ed"/><path d="m350.01 167.621a49.687 49.687 0 0 0 -34.58-13.941h-18.03a12.8 12.8 0 0 1 -12.8-12.809l-.32 1.17-11.63 11.639h-28.52l-11.54-12.969-.16.16a12.8 12.8 0 0 1 -12.8 12.809h-18.29a49.962 49.962 0 0 0 -49.91 49.98v78.531h213.92v-78.531a49.828 49.828 0 0 0 -15.34-36.039z" fill="#ff7178"/><path d="m272.65 153.681-6.59 19.26a2.856 2.856 0 0 1 -2.77 2.16h-9.81c-.12 0-.24-.01-.35-.02a2.823 2.823 0 0 1 -2.41-2.14l-6.59-19.26z" fill="#fff655"/><path d="m264.07 175.1 11.41 65.7-18.31 21.41-17.88-21.41 12.84-65.72c.11.01.23.02.35.02z" fill="#fff655"/><path d="m103.5 398.28v-23.069h-30v23.069a25.248 25.248 0 0 0 25.21 25.28h30a25.248 25.248 0 0 1 -25.21-25.28z" fill="#4a5160"/><path d="m128.71 167.621h-30a25.246 25.246 0 0 0 -25.21 25.269v182.321h30v-182.321a25.246 25.246 0 0 1 25.21-25.269z" fill="#ccd3df"/><path d="m196.77 167.621a49.681 49.681 0 0 1 34.57-13.941h12.79l-11.54-12.969-.16.16a12.8 12.8 0 0 1 -12.8 12.809h-18.29a49.962 49.962 0 0 0 -49.91 49.98v78.531h30v-78.531a49.828 49.828 0 0 1 15.34-36.039z" fill="#e75163"/><g fill="#284268"><path d="m413.286 161.621h-60.994a55.633 55.633 0 0 0 -36.86-13.937h-18.032a6.814 6.814 0 0 1 -6.8-6.814 6 6 0 0 0 -11.667-1.973l-8.776 8.787h-23.338l-9.743-10.962a6 6 0 0 0 -8.733-.25l-.161.161a6 6 0 0 0 -1.751 4.237 6.814 6.814 0 0 1 -6.8 6.814h-18.29a55.631 55.631 0 0 0 -36.86 13.937h-65.767a31.279 31.279 0 0 0 -31.214 31.273v205.39a31.279 31.279 0 0 0 31.214 31.273h103.052v60.443h-23.261a6 6 0 0 0 0 12h154.527a6 6 0 0 0 0-12h-22.8v-60.443h103.054a31.279 31.279 0 0 0 31.214-31.273v-205.39a31.279 31.279 0 0 0 -31.214-31.273zm-149.034-1.937-3.223 9.417h-5.285l-3.223-9.417zm-6.19 21.417h1.965l10.062 57.941-11.866 13.876-11.5-13.774zm-100.634 22.556a43.993 43.993 0 0 1 43.914-43.973h18.29a18.777 18.777 0 0 0 15.068-7.574l4.141 4.658 7.663 20.918-12.1 61.961a6 6 0 0 0 1.283 5l17.877 21.417a6 6 0 0 0 4.57 2.155h.036a6 6 0 0 0 4.56-2.1l18.313-21.419a6 6 0 0 0 1.352-4.926l-11.079-63.792 6.559-19.037 4.617-4.623a18.786 18.786 0 0 0 14.311 7.357c.112 0 .225.009.339.009h18.29a43.993 43.993 0 0 1 43.914 43.973v72.531h-201.918zm140.806 286.343h-84.468v-60.443h84.468zm134.266-91.716a19.265 19.265 0 0 1 -19.214 19.273h-314.572a19.265 19.265 0 0 1 -19.214-19.273v-17.075h353zm0-29.075h-353v-176.315a19.265 19.265 0 0 1 19.214-19.273h55.486a55.663 55.663 0 0 0 -8.769 30.036v78.531a6 6 0 0 0 6 6h213.915a6 6 0 0 0 6-6v-78.531a55.664 55.664 0 0 0 -8.77-30.036h50.71a19.265 19.265 0 0 1 19.214 19.273z"/><path d="m155.644 343.5h17.088v1.8a6 6 0 0 0 12 0v-1.8h176.25a6 6 0 0 0 0-12h-176.25v-2.73a6 6 0 0 0 -12 0v2.73h-17.088a6 6 0 0 0 0 12z"/><path d="m258.387 136.226a48.838 48.838 0 0 0 48.783-48.783v-28.66a48.783 48.783 0 0 0 -97.566 0v28.66a48.838 48.838 0 0 0 48.783 48.783zm-36.787-77.443a36.783 36.783 0 0 1 73.566 0v28.66a36.783 36.783 0 0 1 -73.566 0z"/><path d="m301.17 213.508h27.459a6 6 0 0 0 0-12h-27.459a6 6 0 0 0 0 12z"/></g></svg>