<svg id="Layer_1" height="512" viewBox="0 0 512 512" width="512" xmlns="http://www.w3.org/2000/svg" data-name="Layer 1"><path d="m496 362.181v64.519a21.81 21.81 0 0 1 -21.82 21.8h-436.36a21.81 21.81 0 0 1 -21.82-21.8v-64.52z" fill="#ccd3df"/><path d="m496 85.3v67.26h-480v-67.26a21.81 21.81 0 0 1 21.82-21.8h436.36a21.81 21.81 0 0 1 21.82 21.8z" fill="#ccd3df"/><path d="m496 152.561v209.62h-480v-209.62z" fill="#6d7486"/><path d="m182.86 90.141a17.125 17.125 0 1 1 -17.15 17.13 17.139 17.139 0 0 1 17.15-17.13z" fill="#50dd5a"/><path d="m122.29 90.141a17.125 17.125 0 1 1 -17.15 17.13 17.139 17.139 0 0 1 17.15-17.13z" fill="#fe8700"/><path d="m60.57 90.141a17.125 17.125 0 1 1 -17.14 17.13 17.133 17.133 0 0 1 17.14-17.13z" fill="#f43b3b"/><path d="m316.21 246.7a2.008 2.008 0 0 1 0 3.47l-85.51 49.36a2 2 0 0 1 -3-1.73v-98.73a2 2 0 0 1 3-1.73z" fill="#fb6771"/><path d="m46 426.7v-64.52h-30v64.52a21.81 21.81 0 0 0 21.82 21.8h30a21.81 21.81 0 0 1 -21.82-21.8z" fill="#dedede"/><path d="m67.82 63.5h-30a21.811 21.811 0 0 0 -21.82 21.8v67.26h30v-67.26a21.811 21.811 0 0 1 21.82-21.8z" fill="#dedede"/><path d="m16 152.56h30v209.62h-30z" fill="#b0b5ca"/><g fill="#284268"><path d="m225.7 304.731a8.025 8.025 0 0 0 8 0l85.506-49.367a8 8 0 0 0 0-13.857l-85.506-49.367a8 8 0 0 0 -12 6.929v98.731a8.025 8.025 0 0 0 4 6.931zm8-98.734 73.506 42.438-73.506 42.439z"/><path d="m53.452 397.587h-5.911a6 6 0 0 0 0 12h5.911a6 6 0 0 0 0-12z"/><path d="m83.452 397.587h-5.911a6 6 0 0 0 0 12h5.911a6 6 0 0 0 0-12z"/><path d="m463.452 397.587h-325.052v-2.437a6 6 0 0 0 -12 0v2.437h-8.855a6 6 0 1 0 0 12h8.855v2.372a6 6 0 0 0 12 0v-2.372h325.052a6 6 0 0 0 0-12z"/><path d="m474.182 57.5h-436.364a27.838 27.838 0 0 0 -27.818 27.8v341.4a27.839 27.839 0 0 0 27.818 27.8h436.364a27.839 27.839 0 0 0 27.818-27.8v-341.4a27.838 27.838 0 0 0 -27.818-27.8zm-436.364 12h436.364a15.826 15.826 0 0 1 15.818 15.8v61.26h-468v-61.26a15.826 15.826 0 0 1 15.818-15.8zm452.182 89.057v197.623h-468v-197.623zm-15.818 283.943h-436.364a15.826 15.826 0 0 1 -15.818-15.8v-58.52h468v58.52a15.826 15.826 0 0 1 -15.818 15.8z"/><path d="m60.571 130.394a23.127 23.127 0 1 0 -23.142-23.127 23.161 23.161 0 0 0 23.142 23.127zm0-34.253a11.127 11.127 0 1 1 -11.142 11.126 11.147 11.147 0 0 1 11.142-11.126z"/><path d="m122.286 130.394a23.127 23.127 0 1 0 -23.143-23.127 23.161 23.161 0 0 0 23.143 23.127zm0-34.253a11.127 11.127 0 1 1 -11.143 11.126 11.148 11.148 0 0 1 11.143-11.126z"/><path d="m182.857 130.394a23.127 23.127 0 1 0 -23.143-23.127 23.161 23.161 0 0 0 23.143 23.127zm0-34.253a11.127 11.127 0 1 1 -11.143 11.126 11.148 11.148 0 0 1 11.143-11.126z"/><path d="m273.143 112.126h196.571a6 6 0 0 0 0-12h-196.571a6 6 0 0 0 0 12z"/></g></svg>