<svg id="Layer_1" height="512" viewBox="0 0 512 512" width="512" xmlns="http://www.w3.org/2000/svg" data-name="Layer 1"><path d="m496 152.561v274.139a21.81 21.81 0 0 1 -21.82 21.8h-436.36a21.81 21.81 0 0 1 -21.82-21.8v-274.139z" fill="#e2e4ed"/><path d="m496 85.3v67.26h-480v-67.26a21.81 21.81 0 0 1 21.82-21.8h436.36a21.81 21.81 0 0 1 21.82 21.8z" fill="#b0b5ca"/><path d="m46 426.7v-274.14h-30v274.14a21.811 21.811 0 0 0 21.82 21.8h30a21.811 21.811 0 0 1 -21.82-21.8z" fill="#f4f8fc"/><path d="m67.82 63.5h-30a21.81 21.81 0 0 0 -21.82 21.8v67.26h30v-67.26a21.81 21.81 0 0 1 21.82-21.8z" fill="#ccd3df"/><path d="m294.59 192.941v150.15a2 2 0 0 1 -2 2h-236.87a2.006 2.006 0 0 1 -2-2v-150.15a2.006 2.006 0 0 1 2-2h236.87a2 2 0 0 1 2 2z" fill="#43a2ff"/><rect fill="#ff981d" height="85.21" rx="2" width="115.8" x="340.56" y="190.941"/><rect fill="#9be147" height="85.21" rx="2" width="115.8" x="340.56" y="320.571"/><path d="m197.37 266.281a2 2 0 0 1 0 3.47l-45.07 25.99a2 2 0 0 1 -3-1.73v-51.99a2 2 0 0 1 3-1.73z" fill="#f43b3b"/><path d="m182.86 90.141a17.125 17.125 0 1 1 -17.15 17.13 17.139 17.139 0 0 1 17.15-17.13z" fill="#50dd5a"/><path d="m121.71 90.141a17.125 17.125 0 1 1 -17.14 17.13 17.141 17.141 0 0 1 17.14-17.13z" fill="#fe8700"/><path d="m60.57 90.141a17.125 17.125 0 1 1 -17.14 17.13 17.133 17.133 0 0 1 17.14-17.13z" fill="#f43b3b"/><g fill="#284268"><path d="m292.594 184.942h-236.874a8.009 8.009 0 0 0 -8 8v150.148a8.009 8.009 0 0 0 8 8h236.874a8.009 8.009 0 0 0 8-8v-150.148a8.009 8.009 0 0 0 -8-8zm-4 154.148h-228.874v-142.148h228.874z"/><path d="m147.3 300.94a8.027 8.027 0 0 0 8 0l45.072-26a8 8 0 0 0 0-13.859l-45.071-26a8 8 0 0 0 -12 6.929v51.993a8.022 8.022 0 0 0 3.999 6.937zm8-52 33.065 19.072-33.065 19.075z"/><path d="m50.829 381.4h51.535a6 6 0 0 0 0-12h-51.535a6 6 0 0 0 0 12z"/><path d="m292.008 399.312h-241.179a6 6 0 0 0 0 12h241.179a6 6 0 0 0 0-12z"/><path d="m454.358 184.942h-111.8a8.009 8.009 0 0 0 -8 8v81.206a8.009 8.009 0 0 0 8 8h111.8a8.009 8.009 0 0 0 8-8v-81.206a8.008 8.008 0 0 0 -8-8zm-4 85.206h-103.8v-73.206h103.8z"/><path d="m454.358 314.573h-111.8a8.009 8.009 0 0 0 -8 8v81.206a8.009 8.009 0 0 0 8 8h111.8a8.008 8.008 0 0 0 8-8v-81.206a8.009 8.009 0 0 0 -8-8zm-4 85.206h-103.8v-73.206h103.8z"/><path d="m474.182 57.5h-436.364a27.838 27.838 0 0 0 -27.818 27.8v341.4a27.839 27.839 0 0 0 27.818 27.8h436.364a27.839 27.839 0 0 0 27.818-27.8v-341.4a27.838 27.838 0 0 0 -27.818-27.8zm-436.364 12h436.364a15.826 15.826 0 0 1 15.818 15.8v61.26h-468v-61.26a15.826 15.826 0 0 1 15.818-15.8zm436.364 373h-436.364a15.826 15.826 0 0 1 -15.818-15.8v-268.143h468v268.143a15.826 15.826 0 0 1 -15.818 15.8z"/><path d="m60.571 130.394a23.127 23.127 0 1 0 -23.142-23.127 23.161 23.161 0 0 0 23.142 23.127zm0-34.253a11.127 11.127 0 1 1 -11.142 11.126 11.147 11.147 0 0 1 11.142-11.126z"/><path d="m121.714 130.394a23.127 23.127 0 1 0 -23.143-23.127 23.161 23.161 0 0 0 23.143 23.127zm0-34.253a11.127 11.127 0 1 1 -11.143 11.126 11.148 11.148 0 0 1 11.143-11.126z"/><path d="m182.857 130.394a23.127 23.127 0 1 0 -23.143-23.127 23.161 23.161 0 0 0 23.143 23.127zm0-34.253a11.127 11.127 0 1 1 -11.143 11.126 11.148 11.148 0 0 1 11.143-11.126z"/><path d="m273.143 112.126h196.571a6 6 0 0 0 0-12h-196.571a6 6 0 0 0 0 12z"/></g></svg>