<svg id="Layer_1" height="512" viewBox="0 0 512 512" width="512" xmlns="http://www.w3.org/2000/svg" data-name="Layer 1"><path d="m476.63 10.42h-441.26a24.367 24.367 0 0 0 -24.37 24.36v280.72a24.369 24.369 0 0 0 24.37 24.37h441.26a24.369 24.369 0 0 0 24.37-24.37v-280.72a24.367 24.367 0 0 0 -24.37-24.36z" fill="#ccd3df"/><path d="m41 315.5v-280.72a24.367 24.367 0 0 1 24.37-24.36h-30a24.367 24.367 0 0 0 -24.37 24.36v280.72a24.369 24.369 0 0 0 24.37 24.37h30a24.369 24.369 0 0 1 -24.37-24.37z" fill="#b0b5ca"/><path d="m313.26 144.34-84.06-48.54a2.444 2.444 0 0 0 -3.66 2.11v97.07a2.437 2.437 0 0 0 3.66 2.11l84.06-48.53a2.44 2.44 0 0 0 0-4.22z" fill="#fb6771"/><path d="m122.1 344.9v30.74a39.425 39.425 0 0 1 -78.85 0v-22.64h11.99a18.181 18.181 0 0 0 18.18-18.18 8.331 8.331 0 0 1 8.32-8.32h23.78v1.81a16.585 16.585 0 0 0 16.58 16.59z" fill="#f9b691"/><path d="m54.246 375.639v-22.639h-11v22.64a39.4 39.4 0 0 0 44.929 39.03 39.423 39.423 0 0 1 -33.929-39.031z" fill="#e2a586"/><path d="m84.416 334.819a8.331 8.331 0 0 1 8.32-8.32h-11a8.331 8.331 0 0 0 -8.32 8.32 18.181 18.181 0 0 1 -18.18 18.181h11a18.181 18.181 0 0 0 18.18-18.181z" fill="#e2a586"/><path d="m292.326 338.179v37.46a39.425 39.425 0 0 1 -78.85 0v-43.46l25.71-3.6a27.25 27.25 0 0 1 18.59 4.11 27.3 27.3 0 0 0 24.3 2.67l8.57-3.18 1.19-.21a39.725 39.725 0 0 1 .49 6.21z" fill="#f5cac1"/><path d="m224.476 375.639v-43.46h-11v43.46a39.4 39.4 0 0 0 44.929 39.03 39.423 39.423 0 0 1 -33.929-39.03z" fill="#e2bbb5"/><path d="m456.356 365.419v5.29a39.425 39.425 0 0 1 -78.85 0v-18.73h8.59a67.143 67.143 0 0 0 47.67-19.85s7.22 20.38 19.23 20.38a11.294 11.294 0 0 0 3.36-.53z" fill="#e0b892"/><path d="m377.506 351.979v18.73a39.392 39.392 0 0 0 44.921 39.03 39.423 39.423 0 0 1 -33.921-39.03v-18.73" fill="#cea98a"/><path d="m307.106 462.8v38.71h-108.406v-38.71a30 30 0 0 1 30-30h48.41a30 30 0 0 1 29.996 30z" fill="#fb6771"/><path d="m248.7 432.8h-20a30 30 0 0 0 -30 30v38.71h20v-38.71a30 30 0 0 1 30-30z" fill="#e75163"/><path d="m471.136 457.879v43.7h-108.41v-43.7a30 30 0 0 1 30-30h48.41a30 30 0 0 1 30 30z" fill="#eadf53"/><path d="m412.726 427.879h-20a30 30 0 0 0 -30 30v43.7h20v-43.7a30 30 0 0 1 30-30z" fill="#fff655"/><path d="m136.886 462.8v38.71h-108.42v-38.71a30 30 0 0 1 30-30h48.42a30 30 0 0 1 30 30z" fill="#fbb040"/><path d="m78.466 432.8h-20a30 30 0 0 0 -30 30v38.71h20v-38.71a30 30 0 0 1 30-30z" fill="#e89e3d"/><path d="m122.1 326.5v18.4a16.585 16.585 0 0 1 -16.58-16.59v-1.81z" fill="#6d7486"/><path d="m460.436 319.219a23.1 23.1 0 1 1 0 46.2h-4.08v-22.31a39.182 39.182 0 0 0 -8.07-23.89z" fill="#6d7486"/><path d="m456.356 343.109v8.87a11.294 11.294 0 0 1 -3.36.53c-12.01 0-19.23-20.38-19.23-20.38a67.143 67.143 0 0 1 -47.67 19.85h-8.59v-8.87a39.421 39.421 0 0 1 67.3-27.87 39.819 39.819 0 0 1 3.48 3.98 39.182 39.182 0 0 1 8.07 23.89z" fill="#4a5160"/><path d="m291.836 331.969-1.19.21-8.57 3.18a27.3 27.3 0 0 1 -24.3-2.67 27.25 27.25 0 0 0 -18.59-4.11l-25.71 3.6v-33.42h39.43a39.427 39.427 0 0 1 38.93 33.21z" fill="#4a5160"/><path d="m122.1 326.5h-40.364a8.331 8.331 0 0 0 -8.32 8.32 18.181 18.181 0 0 1 -18.18 18.18h-11.99v-14.82a39.434 39.434 0 0 1 39.43-39.42c3.67 0 9.05 1.4 12.85 2.56a34.487 34.487 0 0 0 9.99 1.49 23.695 23.695 0 0 1 23.684 23.69z" fill="#4a5160"/><g fill="#284268"><path d="m456.658 252.544h-355.185v-15.5a6 6 0 0 0 -12 0v15.5h-34.131a6 6 0 0 0 0 12h34.131v15.5a6 6 0 0 0 12 0v-15.5h355.185a6 6 0 1 0 0-12z"/><path d="m223.761 202.287a8.462 8.462 0 0 0 8.437 0l24.6-14.2a6 6 0 0 0 -6-10.393l-19.257 11.118v-84.725l73.371 42.36-8.174 4.72a6 6 0 1 0 6 10.392l13.52-7.805a8.437 8.437 0 0 0 0-14.613l-84.058-48.533a8.437 8.437 0 0 0 -12.655 7.306v97.066a8.461 8.461 0 0 0 4.216 7.307z"/><path d="m279.093 161.355-8.363 4.828a6 6 0 1 0 6 10.393l8.363-4.829a6 6 0 0 0 -6-10.392z"/><path d="m476.634 4.419h-441.268a30.4 30.4 0 0 0 -30.366 30.365v280.716a30.393 30.393 0 0 0 30.331 30.365h1.918v29.77a45.425 45.425 0 1 0 90.85 0v-29.77h79.377v29.77a45.425 45.425 0 0 0 90.85 0v-29.77h73.179v24.842a45.419 45.419 0 0 0 90.834.638 29.125 29.125 0 0 0 27.181-28.363 30.39 30.39 0 0 0 17.48-27.482v-280.716a30.4 30.4 0 0 0 -30.366-30.365zm-360.534 371.218a33.425 33.425 0 1 1 -66.85 0v-16.637h5.99a24.205 24.205 0 0 0 24.179-24.178 2.324 2.324 0 0 1 2.322-2.322h18.166a22.655 22.655 0 0 0 16.193 17.585zm-34.359-55.137a14.338 14.338 0 0 0 -14.322 14.322 12.192 12.192 0 0 1 -12.179 12.178h-5.991v-8.816a33.462 33.462 0 0 1 33.425-33.425c2.253 0 6.3.837 11.113 2.3a40.326 40.326 0 0 0 11.725 1.755 17.719 17.719 0 0 1 16.641 11.686zm34.359 16.526a10.652 10.652 0 0 1 -3.721-4.527h3.721zm170.227 38.611a33.425 33.425 0 0 1 -66.85 0v-38.243l20.541-2.876a21.276 21.276 0 0 1 14.5 3.206 33.41 33.41 0 0 0 29.649 3.256l2.159-.8zm-66.85-50.359v-20.52h33.423a33.48 33.48 0 0 1 31.824 23.214l-4.734 1.758a21.365 21.365 0 0 1 -18.955-2.081 33.282 33.282 0 0 0 -22.683-5.015zm230.879 45.431a33.425 33.425 0 0 1 -66.85 0v-12.727h2.586a73.734 73.734 0 0 0 45.575-15.937c4.09 7.468 10.477 14.936 18.689 16.259zm0-24.969c-5.312-2.748-9.806-12.466-10.932-15.612a6 6 0 0 0 -9.914-2.224 61.576 61.576 0 0 1 -43.418 18.078h-2.586v-2.871a33.425 33.425 0 0 1 66.85 0zm12 13.562v-16.191a45.155 45.155 0 0 0 -3.676-17.887h1.761a17.093 17.093 0 0 1 1.915 34.078zm32.644-43.802a18.321 18.321 0 0 1 -7.941 15.092 29.133 29.133 0 0 0 -26.619-17.37h-9.34a45.393 45.393 0 0 0 -78.642 20.643h-74.343a45.483 45.483 0 0 0 -45.215-41.107h-39.424a6 6 0 0 0 -6 6v35.109h-79.376v-1.367h1.1a6 6 0 0 0 6-6 29.723 29.723 0 0 0 -29.688-29.689 28.356 28.356 0 0 1 -8.239-1.237c-6.153-1.868-11.065-2.815-14.6-2.815a45.483 45.483 0 0 0 -45.214 41.109h-2.093a18.386 18.386 0 0 1 -18.366-18.368v-280.716a18.386 18.386 0 0 1 18.366-18.365h441.268a18.386 18.386 0 0 1 18.366 18.365z"/><path d="m277.11 426.8h-48.419a36.041 36.041 0 0 0 -36 36v38.706a6 6 0 0 0 6 6h108.419a6 6 0 0 0 6-6v-38.706a36.04 36.04 0 0 0 -36-36zm24 68.706h-96.419v-32.706a24.028 24.028 0 0 1 24-24h48.419a24.027 24.027 0 0 1 24 24z"/><path d="m283.43 459.141h-10.816a6 6 0 0 0 0 12h10.816a6 6 0 0 0 0-12z"/><path d="m106.883 426.8h-48.419a36.041 36.041 0 0 0 -36 36v38.706a6 6 0 0 0 6 6h108.419a6 6 0 0 0 6-6v-38.706a36.041 36.041 0 0 0 -36-36zm24 68.706h-96.419v-32.706a24.027 24.027 0 0 1 24-24h48.419a24.028 24.028 0 0 1 24 24z"/><path d="m113.2 459.141h-10.814a6 6 0 0 0 0 12h10.814a6 6 0 1 0 0-12z"/><path d="m441.14 421.875h-48.419a36.041 36.041 0 0 0 -36 36v43.706a6 6 0 0 0 6 6h108.419a6 6 0 0 0 6-6v-43.706a36.041 36.041 0 0 0 -36-36zm24 73.706h-96.419v-37.706a24.027 24.027 0 0 1 24-24h48.419a24.027 24.027 0 0 1 24 24z"/><path d="m447.46 454.213h-10.817a6 6 0 0 0 0 12h10.817a6 6 0 0 0 0-12z"/></g></svg>