<svg fill="#7e39d3" viewBox="0 0 464 464" xmlns="http://www.w3.org/2000/svg"><path d="m456 217.12h-102.32v-19.76a8 8 0 0 0 -4.08-6.96l-109.6-61.6v-31.36h21.68v11.92a8 8 0 0 0 8 8h65.36a8.001 8.001 0 0 0 7.52-10.72l-6.56-18.64 6.64-18.24a8 8 0 0 0 -7.52-10.72h-29.76v-11.6a8 8 0 0 0 -8-8h-57.36v-9.76a8 8 0 0 0 -16 0v99.12l-109.6 61.52a8 8 0 0 0 -4.08 6.96v19.76h-102.32a8 8 0 0 0 -8 8v209.28a8 8 0 0 0 8 8h448a8 8 0 0 0 8-8v-209.2a8 8 0 0 0 -8-8zm-150.64-127.68-.32-.32v-13.76h18.24l-3.28 10.24a7.999 7.999 0 0 0 0 5.52l3.76 10.24h-46.08v-3.92h19.68a8 8 0 0 0 8-8zm-65.36-34h49.36v26h-49.36zm-129.68 370.88h-94.32v-193.2h94.32zm113.68 0h-42v-91.36h42zm58 0h-42v-91.36h42zm56 0h-40v-99.36a8 8 0 0 0 -8-8h-116a8 8 0 0 0 -8 8v99.36h-40v-224l106-59.68 105.68 59.36.32 23.04zm110 0h-94.32v-193.2h94.32z"/><path d="m232 167.12c-18.526.044-33.52 15.074-33.52 33.6.044 18.513 15.087 33.484 33.6 33.44s33.484-15.087 33.44-33.6c-.044-18.481-15.039-33.44-33.52-33.44zm0 51.04c-9.676-.044-17.484-7.924-17.44-17.6.044-9.613 7.826-17.396 17.44-17.44 9.689.044 17.52 7.911 17.52 17.6h.08c-.044 9.676-7.924 17.484-17.6 17.44zm-196.72 32.56h16v32h-16zm39.44 0h16v32h-16zm75.6 0h32v16h-32zm65.68 0h32v16h-32zm65.68 0h32v16h-32zm-131.36 37.28h32v16h-32zm65.68 0h32v16h-32zm65.68 0h32v16h-32zm-246.4 25.68h16v32h-16zm39.44 0h16v32h-16zm-39.44 63.04h16v32h-16zm39.44 0h16v32h-16zm298.56-126h16v32h-16zm39.44 0h16v32h-16zm-39.44 62.96h16v32h-16zm39.44 0h16v32h-16zm-39.44 63.04h16v32h-16zm39.44 0h16v32h-16z"/></svg>